<?xml version="1.0" encoding="utf-8"?>
<!-- Generator: Adobe Illustrator 24.0.0, SVG Export Plug-In . SVG Version: 6.00 Build 0)  -->
<svg version="1.2" baseProfile="tiny" id="Layer_1" xmlns="http://www.w3.org/2000/svg" xmlns:xlink="http://www.w3.org/1999/xlink"
	 x="0px" y="0px" viewBox="0 0 114.75 107.92" xml:space="preserve">
<title>Artboard 1</title>
<g>
	<path fill="#FFFFFF" d="M24.39,94.21c-0.34-4.83-0.03-9.76,1.04-14.6c1.06-4.83,2.88-9.58,5.56-13.94
		c2.67-4.35,6.23-8.31,10.68-11.33c4.43-3.02,9.81-5.01,15.45-5.39v8.82c-4.04-0.36-8.24,0.43-12.13,2.29
		c-3.9,1.84-7.46,4.7-10.42,8.18c-2.96,3.49-5.32,7.58-7.02,11.99C25.84,84.65,24.79,89.38,24.39,94.21z"/>
	<path fill="#FFFFFF" d="M36.08,101.28c-1.57-4.58-2.55-9.42-2.78-14.37c-0.22-4.94,0.3-10,1.76-14.9
		c1.46-4.89,3.86-9.64,7.38-13.71c3.49-4.06,8.18-7.38,13.53-9.2l2.28,8.52c-3.99,0.7-7.84,2.55-11.13,5.35
		c-3.29,2.79-5.99,6.47-7.94,10.6c-1.96,4.13-3.18,8.7-3.68,13.4C35,91.68,35.21,96.52,36.08,101.28z"/>
	<path fill="#FFFFFF" d="M49.2,105.1c-2.7-4.01-4.9-8.44-6.4-13.16c-1.5-4.72-2.3-9.74-2.15-14.85c0.14-5.1,1.24-10.31,3.58-15.15
		c2.32-4.83,5.99-9.25,10.69-12.39l4.41,7.64c-3.67,1.71-6.92,4.49-9.36,8.05c-2.46,3.54-4.11,7.8-4.93,12.3
		c-0.82,4.5-0.82,9.23-0.09,13.9C45.67,96.1,47.13,100.71,49.2,105.1z"/>
	<path fill="#FFFFFF" d="M62.85,105.38c-3.65-3.18-6.92-6.88-9.59-11.06c-2.67-4.17-4.74-8.81-5.92-13.78
		c-1.18-4.96-1.48-10.28-0.46-15.56c0.99-5.27,3.39-10.48,7.12-14.73l6.24,6.24c-3.11,2.6-5.52,6.13-6.96,10.19
		c-1.46,4.06-1.95,8.6-1.58,13.15c0.37,4.56,1.6,9.13,3.51,13.45C57.12,97.61,59.72,101.69,62.85,105.38z"/>
	<path fill="#FFFFFF" d="M76.12,102.13c-4.35-2.12-8.46-4.86-12.12-8.2c-3.65-3.34-6.86-7.29-9.29-11.78
		c-2.43-4.49-4.09-9.55-4.47-14.91c-0.4-5.34,0.56-11,3.06-16.07l7.64,4.41c-2.33,3.32-3.74,7.35-4.09,11.65
		c-0.36,4.3,0.34,8.82,1.88,13.11c1.54,4.31,3.91,8.4,6.87,12.08C68.57,96.1,72.14,99.37,76.12,102.13z"/>
	<path fill="#FFFFFF" d="M88.09,95.55c-4.75-0.93-9.43-2.5-13.83-4.78c-4.39-2.28-8.51-5.26-12.02-8.98
		c-3.51-3.71-6.42-8.17-8.18-13.25c-1.77-5.06-2.3-10.77-1.2-16.32l8.52,2.28c-1.39,3.81-1.71,8.07-0.93,12.31
		c0.77,4.24,2.61,8.43,5.21,12.18c2.6,3.76,5.95,7.11,9.77,9.89C79.24,91.68,83.53,93.91,88.09,95.55z"/>
	<path fill="#FFFFFF" d="M97.95,86.09c-4.83,0.33-9.76,0.03-14.6-1.04c-4.83-1.06-9.58-2.88-13.94-5.56
		c-4.35-2.67-8.31-6.23-11.33-10.68c-3.02-4.43-5.01-9.81-5.39-15.45l8.82,0c-0.36,4.04,0.43,8.24,2.29,12.13
		c1.84,3.9,4.7,7.46,8.18,10.42c3.49,2.96,7.58,5.32,11.99,7.02C88.4,84.65,93.12,85.69,97.95,86.09z"/>
	<path fill="#FFFFFF" d="M105.03,74.41c-4.58,1.57-9.42,2.55-14.37,2.78c-4.94,0.22-10-0.3-14.9-1.76
		c-4.89-1.46-9.64-3.86-13.71-7.38c-4.06-3.49-7.38-8.18-9.2-13.53l8.52-2.28c0.7,3.99,2.55,7.84,5.35,11.13
		c2.79,3.29,6.47,5.99,10.6,7.94c4.13,1.96,8.7,3.18,13.4,3.68C95.43,75.48,100.26,75.27,105.03,74.41z"/>
	<path fill="#FFFFFF" d="M108.84,61.29c-4.01,2.7-8.44,4.9-13.16,6.4c-4.72,1.5-9.74,2.3-14.85,2.15
		c-5.1-0.14-10.31-1.24-15.15-3.58c-4.83-2.32-9.25-5.99-12.39-10.69l7.64-4.41c1.71,3.67,4.49,6.92,8.05,9.36
		c3.54,2.46,7.8,4.11,12.3,4.93c4.5,0.82,9.23,0.82,13.9,0.09C99.85,64.81,104.46,63.36,108.84,61.29z"/>
	<path fill="#FFFFFF" d="M109.13,47.63c-3.18,3.65-6.88,6.92-11.06,9.59c-4.17,2.67-8.81,4.74-13.78,5.92
		c-4.96,1.18-10.28,1.48-15.56,0.46c-5.27-0.99-10.48-3.39-14.73-7.12l6.24-6.24c2.6,3.11,6.13,5.52,10.19,6.96
		c4.06,1.46,8.6,1.95,13.15,1.58c4.56-0.37,9.13-1.6,13.45-3.51C101.35,53.36,105.43,50.76,109.13,47.63z"/>
	<path fill="#FFFFFF" d="M105.87,34.36c-2.12,4.35-4.86,8.46-8.2,12.12c-3.34,3.65-7.29,6.86-11.78,9.29
		c-4.49,2.43-9.55,4.09-14.91,4.47c-5.34,0.4-11-0.56-16.07-3.06l4.41-7.64c3.32,2.33,7.35,3.74,11.65,4.09
		c4.3,0.36,8.82-0.34,13.11-1.88c4.31-1.54,8.4-3.91,12.08-6.87C99.85,41.91,103.11,38.34,105.87,34.36z"/>
	<path fill="#FFFFFF" d="M99.29,22.39c-0.93,4.75-2.5,9.43-4.78,13.83c-2.28,4.39-5.26,8.51-8.98,12.02
		c-3.71,3.51-8.17,6.42-13.25,8.18c-5.06,1.77-10.77,2.3-16.32,1.2l2.28-8.52c3.81,1.39,8.07,1.71,12.31,0.93
		c4.24-0.77,8.43-2.61,12.18-5.21c3.76-2.6,7.11-5.95,9.89-9.77C95.42,31.25,97.66,26.95,99.29,22.39z"/>
	<path fill="#FFFFFF" d="M89.84,12.53c0.33,4.83,0.03,9.76-1.04,14.6c-1.06,4.83-2.88,9.58-5.56,13.94
		c-2.67,4.35-6.23,8.31-10.68,11.33c-4.43,3.02-9.81,5.01-15.45,5.39l0-8.82c4.04,0.36,8.24-0.43,12.13-2.29
		c3.9-1.84,7.46-4.7,10.42-8.18c2.96-3.49,5.32-7.58,7.02-11.99C88.39,22.08,89.44,17.36,89.84,12.53z"/>
	<path fill="#FFFFFF" d="M78.15,5.45c1.57,4.58,2.55,9.42,2.78,14.37c0.22,4.94-0.3,10-1.76,14.9c-1.46,4.89-3.86,9.64-7.38,13.71
		c-3.49,4.06-8.18,7.38-13.53,9.2l-2.28-8.52c3.99-0.7,7.84-2.55,11.13-5.35c3.29-2.79,5.99-6.47,7.94-10.6
		c1.96-4.13,3.18-8.7,3.68-13.4C79.23,15.05,79.02,10.22,78.15,5.45z"/>
	<path fill="#FFFFFF" d="M65.04,1.64c2.7,4.01,4.9,8.44,6.4,13.16c1.5,4.72,2.3,9.74,2.15,14.85c-0.14,5.1-1.24,10.31-3.58,15.15
		c-2.32,4.83-5.99,9.25-10.69,12.39l-4.41-7.64c3.67-1.71,6.92-4.49,9.36-8.05c2.46-3.54,4.11-7.8,4.93-12.3
		c0.82-4.5,0.82-9.23,0.09-13.9C68.56,10.64,67.1,6.02,65.04,1.64z"/>
	<path fill="#FFFFFF" d="M51.38,1.35c3.65,3.18,6.92,6.88,9.59,11.06c2.67,4.17,4.74,8.81,5.92,13.78
		c1.18,4.96,1.48,10.28,0.46,15.56c-0.99,5.27-3.39,10.48-7.12,14.73L54,50.25c3.11-2.6,5.52-6.13,6.96-10.19
		c1.46-4.06,1.95-8.6,1.58-13.15c-0.37-4.56-1.6-9.13-3.51-13.45C57.11,9.13,54.51,5.05,51.38,1.35z"/>
	<path fill="#FFFFFF" d="M38.11,4.61c4.35,2.12,8.46,4.86,12.12,8.2c3.65,3.34,6.86,7.29,9.29,11.78c2.43,4.49,4.09,9.55,4.47,14.91
		c0.4,5.34-0.56,11-3.06,16.07l-7.64-4.41c2.33-3.32,3.74-7.35,4.09-11.65c0.36-4.3-0.34-8.82-1.88-13.11
		c-1.54-4.31-3.91-8.4-6.87-12.08C45.66,10.64,42.09,7.37,38.11,4.61z"/>
	<path fill="#FFFFFF" d="M26.14,11.19c4.75,0.93,9.43,2.5,13.83,4.78c4.39,2.28,8.51,5.26,12.02,8.98
		c3.51,3.71,6.42,8.17,8.18,13.25c1.77,5.06,2.3,10.77,1.2,16.32l-8.52-2.28c1.39-3.81,1.71-8.07,0.93-12.31
		c-0.77-4.24-2.61-8.43-5.21-12.18c-2.6-3.76-5.95-7.11-9.77-9.89C34.99,15.06,30.7,12.83,26.14,11.19z"/>
	<path fill="#FFFFFF" d="M16.28,20.65c4.83-0.33,9.76-0.03,14.6,1.04c4.83,1.06,9.58,2.88,13.94,5.56
		c4.35,2.67,8.31,6.23,11.33,10.68c3.02,4.43,5.01,9.81,5.39,15.45l-8.82,0c0.36-4.04-0.43-8.24-2.29-12.13
		c-1.84-3.9-4.7-7.46-8.18-10.42c-3.49-2.96-7.58-5.32-11.99-7.02C25.83,22.09,21.11,21.04,16.28,20.65z"/>
	<path fill="#FFFFFF" d="M9.2,32.33c4.58-1.57,9.42-2.55,14.37-2.78c4.94-0.22,10,0.3,14.9,1.76c4.89,1.46,9.64,3.86,13.71,7.38
		c4.06,3.49,7.38,8.18,9.2,13.53l-8.52,2.28c-0.7-3.99-2.55-7.84-5.35-11.13c-2.79-3.29-6.47-5.99-10.6-7.94
		c-4.13-1.96-8.7-3.18-13.4-3.68C18.81,31.26,13.97,31.47,9.2,32.33z"/>
	<path fill="#FFFFFF" d="M5.39,45.45c4.01-2.7,8.44-4.9,13.16-6.4c4.72-1.5,9.74-2.3,14.85-2.15c5.1,0.14,10.31,1.24,15.15,3.58
		c4.83,2.32,9.25,5.99,12.39,10.69l-7.64,4.41c-1.71-3.67-4.49-6.92-8.05-9.36c-3.54-2.46-7.8-4.11-12.3-4.93
		c-4.5-0.82-9.23-0.82-13.9-0.09C14.38,41.93,9.77,43.38,5.39,45.45z"/>
	<path fill="#FFFFFF" d="M5.1,59.11c3.18-3.65,6.88-6.92,11.06-9.59c4.17-2.67,8.81-4.74,13.78-5.92
		c4.96-1.18,10.28-1.48,15.56-0.46c5.27,0.99,10.48,3.39,14.73,7.12L54,56.49c-2.6-3.11-6.13-5.52-10.19-6.96
		c-4.06-1.46-8.6-1.95-13.15-1.58c-4.56,0.37-9.13,1.6-13.45,3.51C12.88,53.37,8.8,55.97,5.1,59.11z"/>
	<path fill="#FFFFFF" d="M8.36,72.37c2.12-4.35,4.86-8.46,8.2-12.12c3.34-3.65,7.29-6.86,11.78-9.29c4.49-2.43,9.55-4.09,14.91-4.47
		c5.34-0.4,11,0.56,16.07,3.06l-4.41,7.64c-3.32-2.33-7.35-3.74-11.65-4.09c-4.3-0.36-8.82,0.34-13.11,1.88
		c-4.31,1.54-8.4,3.91-12.08,6.87C14.39,64.82,11.12,68.39,8.36,72.37z"/>
	<path fill="#FFFFFF" d="M14.94,84.34c0.93-4.75,2.5-9.43,4.78-13.83C22,66.12,24.98,62,28.7,58.49c3.71-3.51,8.17-6.42,13.25-8.18
		c5.06-1.77,10.77-2.3,16.32-1.2l-2.28,8.52c-3.81-1.39-8.07-1.71-12.31-0.93c-4.24,0.77-8.43,2.61-12.18,5.21
		c-3.76,2.6-7.11,5.95-9.89,9.77C18.81,75.49,16.58,79.78,14.94,84.34z"/>
</g>
</svg>
