<?xml version="1.0" encoding="utf-8"?>
<!-- Generator: Adobe Illustrator 24.0.0, SVG Export Plug-In . SVG Version: 6.00 Build 0)  -->
<svg version="1.1" id="Layer_1" xmlns="http://www.w3.org/2000/svg" xmlns:xlink="http://www.w3.org/1999/xlink" x="0px" y="0px"
	 viewBox="0 0 495 104" style="enable-background:new 0 0 495 104;" xml:space="preserve">
<style type="text/css">
	.st0{fill:#FFFFFF;}
	.st1{enable-background:new    ;}
</style>
<title>white-full</title>
<path class="st0" d="M19.3,92.9c-0.3-4.9,0-9.8,1-14.6c1.1-4.9,3-9.6,5.6-13.9c2.7-4.5,6.4-8.3,10.7-11.3c4.6-3.1,9.9-5,15.5-5.4
	v8.8c-4.2-0.4-8.4,0.4-12.1,2.3c-4,1.9-7.6,4.7-10.4,8.2c-3,3.6-5.4,7.6-7,12C20.7,83.4,19.6,88.1,19.3,92.9z"/>
<path class="st0" d="M31,99.9c-1.6-4.6-2.5-9.5-2.8-14.4c-0.2-5,0.4-10.1,1.8-14.9c1.5-5,4-9.7,7.4-13.7c3.6-4.2,8.3-7.4,13.5-9.2
	l2.3,8.5c-4.1,0.7-7.9,2.6-11.1,5.3c-3.4,2.9-6.1,6.5-7.9,10.6c-2,4.2-3.2,8.8-3.7,13.4C29.9,90.3,30.1,95.2,31,99.9z"/>
<path class="st0" d="M44.1,103.7c-2.8-4.1-4.9-8.5-6.4-13.2c-1.5-4.8-2.3-9.8-2.2-14.8c0.1-5.3,1.3-10.5,3.6-15.2
	c2.4-5,6.1-9.3,10.7-12.4l4.4,7.6c-3.8,1.8-7,4.6-9.4,8.1c-2.5,3.7-4.2,7.9-4.9,12.3c-0.8,4.6-0.8,9.3-0.1,13.9
	C40.6,94.7,42,99.4,44.1,103.7z"/>
<path class="st0" d="M57.7,104c-3.7-3.2-7-7-9.6-11.1c-2.7-4.2-4.7-8.9-5.9-13.8c-1.3-5.1-1.4-10.4-0.5-15.6
	c1-5.4,3.5-10.5,7.1-14.7L55,55c-3.2,2.7-5.6,6.2-7,10.2c-1.5,4.2-2,8.7-1.6,13.2c0.4,4.6,1.6,9.2,3.5,13.4
	C52,96.2,54.6,100.3,57.7,104z"/>
<path class="st0" d="M71,100.8c-4.4-2.1-8.5-4.9-12.1-8.2c-3.8-3.4-6.9-7.4-9.3-11.8c-2.5-4.6-4-9.7-4.5-14.9
	c-0.4-5.5,0.7-11.1,3.1-16.1l7.6,4.4c-2.3,3.4-3.8,7.4-4.1,11.6c-0.4,4.5,0.3,8.9,1.9,13.1c1.6,4.4,3.9,8.5,6.9,12.1
	C63.5,94.8,67,98.1,71,100.8z"/>
<path class="st0" d="M83,94.2c-4.8-0.9-9.5-2.5-13.8-4.8c-4.5-2.3-8.5-5.4-12-9c-3.6-3.8-6.4-8.3-8.2-13.3
	c-1.9-5.2-2.3-10.9-1.2-16.3l8.5,2.3c-1.4,3.9-1.7,8.2-0.9,12.3c0.9,4.4,2.7,8.5,5.2,12.2c2.7,3.8,6,7.2,9.8,9.9
	C74.2,90.4,78.5,92.6,83,94.2z"/>
<path class="st0" d="M92.8,84.7c-4.9,0.3-9.8,0-14.6-1c-4.9-1.1-9.6-3-13.9-5.6C59.8,75.4,56,71.7,53,67.4c-3.1-4.6-5-9.9-5.4-15.5
	h8.8c-0.4,4.2,0.4,8.4,2.3,12.1c1.9,4,4.7,7.6,8.2,10.4c3.6,3,7.6,5.4,12,7C83.3,83.2,88,84.4,92.8,84.7z"/>
<path class="st0" d="M99.9,73.1c-4.6,1.6-9.5,2.6-14.4,2.8c-5,0.2-10.1-0.4-14.9-1.8c-5-1.5-9.7-4-13.7-7.4
	c-4.2-3.6-7.4-8.3-9.2-13.5l8.5-2.3c0.7,4.1,2.6,7.9,5.3,11.1c2.9,3.4,6.5,6.1,10.6,7.9c4.2,2,8.8,3.2,13.4,3.7
	C90.3,74.1,95.1,73.9,99.9,73.1z"/>
<path class="st0" d="M103.7,59.9c-4.1,2.8-8.5,4.9-13.2,6.4c-4.8,1.5-9.8,2.3-14.8,2.2c-5.2-0.2-10.4-1.4-15.1-3.6
	c-5-2.4-9.3-6.1-12.4-10.7l7.6-4.4c1.8,3.8,4.6,7,8.1,9.4c3.7,2.5,7.9,4.2,12.3,4.9c4.6,0.8,9.3,0.8,13.9,0.1
	C94.8,63.4,99.4,62,103.7,59.9z"/>
<path class="st0" d="M104,46.3c-3.2,3.7-7,7-11.1,9.6c-4.2,2.7-8.9,4.7-13.8,5.9c-5.1,1.3-10.4,1.4-15.6,0.5
	c-5.4-1-10.5-3.5-14.7-7.1L55,49c2.7,3.2,6.2,5.6,10.2,7c4.2,1.5,8.7,2,13.2,1.6c4.6-0.4,9.2-1.6,13.4-3.5
	C96.2,52,100.3,49.4,104,46.3z"/>
<path class="st0" d="M100.8,33c-2.1,4.4-4.9,8.5-8.2,12.1c-3.4,3.8-7.4,6.9-11.8,9.3c-4.6,2.5-9.7,4-14.9,4.5
	c-5.5,0.4-11.1-0.7-16.1-3.1l4.4-7.6c3.4,2.3,7.4,3.8,11.6,4.1c4.5,0.4,8.9-0.3,13.1-1.9c4.4-1.6,8.5-3.9,12.1-6.9
	C94.8,40.5,98.1,37,100.8,33z"/>
<path class="st0" d="M94.2,21c-0.9,4.8-2.5,9.5-4.8,13.8c-2.3,4.5-5.4,8.5-9,12c-3.8,3.6-8.3,6.4-13.3,8.2
	c-5.2,1.9-10.9,2.3-16.3,1.2l2.3-8.5c3.9,1.4,8.2,1.7,12.3,0.9c4.4-0.9,8.5-2.7,12.2-5.2c3.8-2.7,7.2-6,9.9-9.8
	C90.3,29.7,92.6,25.5,94.2,21z"/>
<path class="st0" d="M84.7,11.2c0.3,4.9,0,9.8-1,14.6c-1.1,4.9-3,9.6-5.6,13.9C75.4,44.2,71.7,48,67.4,51c-4.6,3.1-9.9,5-15.5,5.4
	v-8.8c4.2,0.4,8.4-0.4,12.1-2.3c4-1.9,7.6-4.7,10.4-8.2c3-3.6,5.4-7.6,7-12C83.2,20.7,84.4,16,84.7,11.2z"/>
<path class="st0" d="M73,4.1c1.6,4.6,2.6,9.5,2.8,14.4c0.2,5-0.4,10.1-1.8,14.9c-1.5,5-4,9.7-7.4,13.7c-3.6,4.2-8.3,7.4-13.5,9.2
	l-2.3-8.5c4.1-0.7,7.9-2.6,11.1-5.3c3.4-2.9,6.1-6.5,7.9-10.6c2-4.2,3.2-8.8,3.7-13.4C74.1,13.7,73.9,8.8,73,4.1z"/>
<path class="st0" d="M59.9,0.3c2.8,4.1,4.9,8.5,6.4,13.2c1.5,4.8,2.3,9.8,2.2,14.9c-0.1,5.2-1.3,10.4-3.6,15.1
	c-2.4,5-6.1,9.3-10.7,12.4l-4.4-7.6c3.8-1.8,7-4.6,9.4-8c2.5-3.7,4.2-7.9,4.9-12.3c0.8-4.6,0.8-9.3,0.1-13.9
	C63.4,9.3,62,4.7,59.9,0.3z"/>
<path class="st0" d="M46.3,0c3.7,3.2,7,7,9.6,11.1c2.7,4.2,4.7,8.9,5.9,13.8c1.3,5.1,1.4,10.4,0.5,15.6c-1,5.4-3.5,10.5-7.1,14.7
	L49,49c3.2-2.7,5.6-6.2,7-10.2c1.5-4.2,2-8.7,1.6-13.1c-0.4-4.6-1.6-9.2-3.5-13.4C52.1,7.9,49.5,3.7,46.3,0z"/>
<path class="st0" d="M33,3.3c4.4,2.1,8.5,4.9,12.1,8.2c3.8,3.4,6.9,7.4,9.3,11.8c2.5,4.6,4.1,9.7,4.5,14.9
	c0.4,5.5-0.7,11.1-3.1,16.1l-7.6-4.4c2.3-3.4,3.8-7.4,4.1-11.6c0.4-4.5-0.3-8.9-1.9-13.1c-1.6-4.4-3.9-8.5-6.9-12.1
	C40.5,9.3,37,6,33,3.3z"/>
<path class="st0" d="M21,9.8c4.8,0.9,9.5,2.5,13.8,4.8c4.5,2.3,8.5,5.4,12,9c3.6,3.8,6.4,8.3,8.2,13.2c1.9,5.2,2.3,10.9,1.2,16.3
	l-8.5-2.3c1.4-3.9,1.7-8.2,0.9-12.3c-0.9-4.4-2.7-8.5-5.2-12.2c-2.7-3.8-6-7.2-9.8-9.9C29.7,13.6,25.5,11.4,21,9.8z"/>
<path class="st0" d="M11.2,19.3c4.9-0.3,9.8,0,14.6,1c4.9,1.1,9.6,3,13.9,5.6c4.5,2.7,8.3,6.4,11.3,10.7c3.1,4.6,5,9.9,5.4,15.5
	h-8.8c0.4-4.2-0.4-8.4-2.3-12.1c-1.9-4-4.7-7.6-8.2-10.4c-3.6-3-7.6-5.4-12-7C20.7,20.8,16,19.6,11.2,19.3z"/>
<path class="st0" d="M4.1,31c4.6-1.6,9.5-2.5,14.4-2.8c5-0.2,10.1,0.4,14.9,1.8c5,1.5,9.7,4,13.7,7.4c4.2,3.6,7.4,8.3,9.2,13.5
	l-8.5,2.3c-0.7-4.1-2.6-7.9-5.3-11.1c-2.9-3.4-6.5-6.1-10.6-7.9c-4.2-2-8.8-3.2-13.4-3.7C13.7,29.9,8.8,30.1,4.1,31z"/>
<path class="st0" d="M0.3,44.1c4.1-2.8,8.5-4.9,13.2-6.4c4.8-1.5,9.8-2.3,14.9-2.2c5.3,0.1,10.5,1.3,15.2,3.6
	c5,2.4,9.3,6.1,12.4,10.7l-7.6,4.4c-1.8-3.8-4.6-7-8-9.4c-3.7-2.5-7.9-4.2-12.3-4.9c-4.6-0.8-9.3-0.8-13.9-0.1
	C9.4,40.6,4.7,42,0.3,44.1z"/>
<path class="st0" d="M0,57.8c3.2-3.7,7-7,11.1-9.6c4.2-2.7,8.9-4.7,13.8-5.9c5.1-1.3,10.4-1.4,15.6-0.5c5.4,1,10.5,3.5,14.7,7.1
	L49,55.1c-2.7-3.2-6.2-5.6-10.2-7c-4.2-1.5-8.7-2-13.1-1.6c-4.6,0.4-9.2,1.6-13.4,3.5C7.8,52,3.7,54.6,0,57.8z"/>
<path class="st0" d="M3.2,71c2.1-4.4,4.9-8.5,8.2-12.1c3.4-3.8,7.4-6.9,11.8-9.3c4.6-2.5,9.7-4.1,14.9-4.5
	c5.5-0.4,11.1,0.7,16.1,3.1l-4.4,7.6c-3.4-2.3-7.4-3.8-11.6-4.1c-4.5-0.4-8.9,0.3-13.1,1.9c-4.4,1.6-8.5,3.9-12.1,6.9
	C9.3,63.5,6,67.1,3.2,71z"/>
<path class="st0" d="M9.8,83c0.9-4.8,2.5-9.5,4.8-13.8c2.3-4.5,5.4-8.5,9-12c3.8-3.6,8.3-6.4,13.3-8.2c5.2-1.9,10.9-2.3,16.3-1.2
	l-2.3,8.5c-3.9-1.4-8.2-1.7-12.3-0.9c-4.4,0.9-8.5,2.7-12.2,5.2c-3.8,2.7-7.2,6-9.9,9.8C13.7,74.3,11.4,78.5,9.8,83z"/>
<g class="st1">
	<path class="st0" d="M126.3,30.3c5.7-3.4,11.9-3.7,18.6-1.1c4.5,2.5,6.9,6.1,7.1,10.9c0,1.2-0.6,1.8-1.8,1.8h-4.4
		c-1.2,0-1.9-0.6-2-1.8c-0.3-2.1-1.6-3.7-3.8-4.7c-1.7-0.6-3.6-0.7-5.6-0.4c-2,0.4-3.6,1.4-4.7,2.8c-1.7,3-0.5,5.4,3.6,7.2
		c6.9,2.6,11.7,4.6,14.3,5.9c4,2.9,5.7,6.7,5.1,11.2c-0.1,3.6-1.9,6.6-5.4,9.1c-5.7,3-11.8,3.6-18.4,1.9c-5.9-2.6-8.9-7-9.1-13.2
		c-0.1-1.3,0.4-2,1.6-2h4.7c1.2,0,1.9,0.6,2,1.8c0.2,2.7,1.4,4.8,3.6,6.1c4,1.4,7.6,1.1,10.9-0.9c1.3-1,2-2.5,2-4.7
		c-0.3-2.5-1.8-4-4.3-4.5l-9.6-3.3c-6.9-2.5-10.2-6.8-9.9-12.9C120.8,36.3,122.6,33.2,126.3,30.3z"/>
	<path class="st0" d="M156.1,30.3c0-1.3,0.6-1.9,1.7-1.9h32.5c1.2,0,1.9,0.6,1.9,1.8V34c0,1.2-0.6,1.9-1.8,1.9h-10.8
		c-1,0-1.5,0.5-1.5,1.4v34.2c0,1.2-0.6,1.9-1.8,1.9H172c-1.2,0-1.9-0.6-1.9-1.8V37.3c0-1-0.5-1.5-1.4-1.5h-10.8
		c-1.2,0-1.9-0.6-1.9-1.8V30.3z"/>
	<path class="st0" d="M207.6,30.4c6.1-3.1,12.4-3.7,19-1.9c5.9,2.1,9.9,5.8,12.1,11.2c1.1,2.8,1.8,5.8,2,9.1
		c0.4,6.8-1,12.5-4.4,17.3c-2.2,3-5.1,5.3-8.8,6.7c-3.4,1.2-7.2,1.6-11.5,1.2c-7.8-0.6-13.5-5.2-16.8-13.6
		c-2.1-7.3-1.9-14.2,0.5-20.6C201.4,35.9,204,32.7,207.6,30.4z M218,34.9c-4,0.2-7.3,2.4-9.9,6.6c-1.6,3.7-2.2,7.8-1.8,12.4
		c0.2,1.8,0.6,3.3,1.2,4.8c1.7,4.1,4.3,6.6,7.8,7.6c3.5,1,6.8,0.6,10-1c1.4-0.6,2.7-1.8,4.1-3.8c2.8-4.6,3.7-9.8,2.5-15.5
		c-0.4-1.8-1-3.4-1.8-4.8C227.1,36.5,223.1,34.4,218,34.9z"/>
	<path class="st0" d="M244.5,30.3c0-1.3,0.6-1.9,1.7-1.9h16.9c3.6,0.3,6.7,1.4,9.3,3.2c1.8,1.6,2.9,3.3,3.5,5c1.9,5,1,9.5-2.7,13.4
		c-1,0.8-1,1.8,0.2,2.9c1.2,1.6,1.8,3.2,2,4.8l1.3,9.6c0.2,1.2,1.1,2.8,2.7,4.7c1,1,0.8,1.4-0.4,1.4h-6.8c-1.2,0-2.1-0.6-2.7-1.8
		c-0.8-2.9-1.6-7.5-2.3-13.7c-0.3-1.8-1.4-2.7-3.4-2.7h-9.9c-1,0-1.5,0.5-1.5,1.4v14.9c0,1.2-0.6,1.9-1.8,1.9h-4.1
		c-1.2,0-1.9-0.6-1.9-1.8V30.3z M267.7,38.6c-1.5-1.8-3.7-2.8-6.5-2.8h-7.5c-1,0-1.5,0.5-1.5,1.4v9.1c0,1,0.5,1.5,1.4,1.5h7
		c1.7-0.1,3.3-0.6,4.8-1.3C268.6,44.6,269.3,42,267.7,38.6z"/>
	<path class="st0" d="M285.7,30.3c0-1.3,0.6-1.9,1.7-1.9h3.5c1.2,0,2.1,0.6,2.6,1.8c4.3,10.4,8.5,20.8,12.7,31.2
		c0.4,0.9,0.8,0.6,1.4-0.7c4.1-10.2,8.3-20.3,12.5-30.5c0.5-1.2,1.4-1.8,2.6-1.8h3.3c1.2,0,1.9,0.6,1.9,1.8v41.3
		c0,1.2-0.6,1.9-1.8,1.9h-3.7c-1.2,0-1.9-0.6-1.9-1.8V49.4c0-1.4-0.3-1.4-0.8-0.1l-9,22.2c-0.5,1.2-1.4,1.8-2.6,1.8h-2.7
		c-1.2,0-2.1-0.6-2.6-1.8c-3-7.3-6-14.7-8.9-22c-0.4-1.2-0.7-1.7-0.8-1.6l-0.1,1.7v21.9c0,1.2-0.6,1.9-1.8,1.9h-3.7
		c-1.2,0-1.9-0.6-1.9-1.8V30.3z"/>
	<path class="st0" d="M364.4,30.3c0-1.3,0.6-1.9,1.7-1.9H383c3.6,0.3,6.7,1.4,9.3,3.2c1.8,1.6,2.9,3.3,3.5,5c1.9,5,1,9.5-2.7,13.4
		c-1,0.8-1,1.8,0.2,2.9c1.2,1.6,1.8,3.2,2,4.8l1.3,9.6c0.2,1.2,1.1,2.8,2.7,4.7c1,1,0.8,1.4-0.4,1.4H392c-1.2,0-2.1-0.6-2.7-1.8
		c-0.8-2.9-1.6-7.5-2.3-13.7c-0.3-1.8-1.4-2.7-3.4-2.7h-9.9c-1,0-1.5,0.5-1.5,1.4v14.9c0,1.2-0.6,1.9-1.8,1.9h-4.1
		c-1.2,0-1.9-0.6-1.9-1.8V30.3z M387.6,38.6c-1.5-1.8-3.7-2.8-6.5-2.8h-7.5c-1,0-1.5,0.5-1.5,1.4v9.1c0,1,0.5,1.5,1.4,1.5h7
		c1.7-0.1,3.3-0.6,4.8-1.3C388.5,44.6,389.2,42,387.6,38.6z"/>
	<path class="st0" d="M405.6,30.3c0-1.3,0.6-1.9,1.7-1.9h13c5.8,0.1,10.6,1.9,14.3,5.2c2.6,3.1,3.7,6.8,3.2,11
		c-0.2,3.7-1.7,7-4.5,9.7c-4.7,3.3-10.8,4.6-18.4,4.1c-1,0-1.5,0.5-1.5,1.4v11.6c0,1.2-0.6,1.9-1.8,1.9h-4.2c-1.2,0-1.9-0.6-1.9-1.8
		V30.3z M429.6,45.4c1.2-5.6-1.6-8.8-8.3-9.6h-6.3c-1,0-1.5,0.5-1.5,1.4v12.2c0,1,0.5,1.5,1.4,1.5h6.5
		C425.5,51,428.2,49.1,429.6,45.4z"/>
	<path class="st0" d="M460.4,30.3c0.6-1.3,1.4-1.9,2.5-1.9h2.9c1.2,0,2.1,0.6,2.6,1.8l18.1,41.2c0.5,1.3,0.2,1.9-1,1.9h-4.8
		c-1.2,0-2.1-0.6-2.6-1.8c-1.2-2.6-2.4-5.3-3.5-7.9c-0.5-1-1.2-1.4-2.2-1.4h-15.8c-1,0-1.7,0.6-2.3,1.8l-3.3,7.6
		c-0.6,1.2-1.4,1.8-2.6,1.8h-4.8c-1.2,0-1.6-0.6-1.1-1.8L460.4,30.3z M465.2,41.6c-0.4-1.1-0.9-1-1.4,0.1c-1.7,3.7-3.3,7.5-4.8,11.2
		c-0.5,1.3-0.2,1.9,0.7,1.9h9.6c1,0,1.2-0.6,0.7-1.9L465.2,41.6z"/>
</g>
</svg>
