<?xml version="1.0" encoding="UTF-8"?>
<svg width="60px" height="58px" viewBox="0 0 60 58" version="1.1" xmlns="http://www.w3.org/2000/svg" xmlns:xlink="http://www.w3.org/1999/xlink">
    <!-- Generator: Sketch 64 (93537) - https://sketch.com -->
    <title>advt_icon05</title>
    <desc>Created with Sketch.</desc>
    <g id="Page-1" stroke="none" stroke-width="1" fill="none" fill-rule="evenodd">
        <g id="index" transform="translate(-1416.000000, -3240.000000)" fill="#FFFFFF">
            <g id="advt_icon05" transform="translate(1416.000000, 3240.000000)">
                <polygon id="Fill-1" points="4 58 15 58 15 49 4 49"></polygon>
                <polygon id="Fill-2" points="18 58 30 58 30 40 18 40"></polygon>
                <polygon id="Fill-3" points="32 58 45 58 45 31 32 31"></polygon>
                <polygon id="Fill-4" points="49 58 60 58 60 24 49 24"></polygon>
                <polygon id="Fill-5" points="41.2280791 0 44.2538654 3.0333122 27.0502147 20.2780385 14.9447495 8.14432467 14.897892 8.19082646 14.8514985 8.14432467 0 23.0300148 6.3016339 29.3458888 14.897892 20.7295709 27.1397542 33 33.4413881 26.684126 33.3513846 26.5939125 50.5559633 9.34965124 55 13.8045234 54.548127 0"></polygon>
            </g>
        </g>
    </g>
</svg>
