<?xml version="1.0" encoding="UTF-8"?>
<svg width="60px" height="68px" viewBox="0 0 60 68" version="1.1" xmlns="http://www.w3.org/2000/svg" xmlns:xlink="http://www.w3.org/1999/xlink">
    <!-- Generator: Sketch 64 (93537) - https://sketch.com -->
    <title>advt_icon02</title>
    <desc>Created with Sketch.</desc>
    <defs>
        <polygon id="path-1" points="0 0 60 0 60 68 0 68"></polygon>
    </defs>
    <g id="Page-1" stroke="none" stroke-width="1" fill="none" fill-rule="evenodd">
        <g id="index" transform="translate(-687.000000, -3277.000000)">
            <g id="advt_icon02" transform="translate(687.000000, 3277.000000)">
                <mask id="mask-2" fill="white">
                    <use xlink:href="#path-1"></use>
                </mask>
                <g id="Clip-2"></g>
                <path d="M37.296911,44.7977436 L30.5702604,41.3550738 C30.2131664,41.1723189 29.7868336,41.1723189 29.4297396,41.3550738 L22.7030891,44.7977436 C21.8039953,45.257775 20.7533031,44.5147683 20.9250878,43.5400755 L22.2097381,36.2485484 C22.2779675,35.8614224 22.1459497,35.4666326 21.8572869,35.1925002 L16.4152867,30.0285937 C15.6879776,29.3384484 16.0892795,28.1358033 17.0943508,27.9937261 L24.6151268,26.9298175 C25.0142082,26.873419 25.3591905,26.6293528 25.5376366,26.2772057 L28.9010628,19.6430066 C29.3506097,18.7563507 30.6493904,18.7563507 31.0989372,19.6430066 L34.4621616,26.2772057 C34.6408095,26.6293528 34.9857918,26.873419 35.3848732,26.9298175 L42.9054473,27.9937261 C43.9107206,28.1358033 44.3120224,29.3384484 43.5847133,30.0285937 L38.1427131,35.1925002 C37.8540503,35.4666326 37.7220325,35.8614224 37.7902619,36.2485484 L39.0751141,43.5400755 C39.2466969,44.5147683 38.1960047,45.257775 37.296911,44.7977436 M59.9996664,26.2137328 L59.9996664,12.0859936 C59.9996664,11.4905664 59.5493806,10.9861236 58.9435925,10.9043752 C56.250954,10.54142 48.9009534,9.45216158 42.6920791,7.63286611 C36.9838228,5.65321797 32.6070489,1.97198423 30.8456003,0.3307274 C30.3724356,-0.110242467 29.6275645,-0.110242467 29.1543997,0.3307274 C27.3929511,1.97198423 23.0161772,5.65321797 17.3081228,7.63286611 C11.0990467,9.45216158 3.74904599,10.54142 1.05640753,10.9043752 C0.450619388,10.9861236 0.000333576223,11.4905664 0.000333576223,12.0859936 L0.000333576223,26.2137328 C0.000333576223,26.2137328 -0.200184,44.1193889 9.23121671,55.2464106 C18.8045265,65.4197662 28.1511451,67.6556642 29.7575636,67.9759766 C29.9182459,68.0080078 30.0817542,68.0080078 30.2424364,67.9759766 C31.8488549,67.6556642 41.1954736,65.4197662 50.7685815,55.2464106 C60.200184,44.1193889 59.9996664,26.2137328 59.9996664,26.2137328" id="Fill-1" fill="#FFFFFF" mask="url(#mask-2)"></path>
            </g>
        </g>
    </g>
</svg>
