<?xml version="1.0" encoding="UTF-8"?>
<svg width="60px" height="60px" viewBox="0 0 60 60" version="1.1" xmlns="http://www.w3.org/2000/svg" xmlns:xlink="http://www.w3.org/1999/xlink">
    <!-- Generator: Sketch 64 (93537) - https://sketch.com -->
    <title>advt_icon01</title>
    <desc>Created with Sketch.</desc>
    <defs>
        <polygon id="path-1" points="0 0 60 0 60 60 0 60"></polygon>
    </defs>
    <g id="Page-1" stroke="none" stroke-width="1" fill="none" fill-rule="evenodd">
        <g id="index" transform="translate(-439.000000, -3242.000000)">
            <g id="advt_icon01" transform="translate(439.000000, 3242.000000)">
                <mask id="mask-2" fill="white">
                    <use xlink:href="#path-1"></use>
                </mask>
                <g id="Clip-2"></g>
                <path d="M46.5246381,6.01352432 C52.5529517,10.1702901 56.7694556,16.3709736 58.3958526,23.4694976 C58.4429692,23.6841416 58.4905221,23.899222 58.5332761,24.118665 L58.5341487,24.1212826 C58.5581433,24.2377663 58.5742851,24.3559951 58.5965346,24.472915 C55.5945932,28.0490075 52.0586631,30.1566204 49.7735056,29.4437577 C47.1476249,28.6327347 48.3774567,24.793136 44.8048804,22.6165927 C40.6642866,20.0905984 36.5590303,23.7639788 29.9016222,21.9922926 C29.8710836,21.9879299 29.8409813,21.9796408 29.8100065,21.9704792 C25.5215188,20.8012797 23.6591023,15.7104632 26.1196385,12.0061078 C27.3756462,10.1127027 28.4183202,9.50192685 29.2825617,9.57609249 C31.7950135,9.79422671 32.5977416,15.8234567 34.8706837,15.7841925 C36.8338775,15.7492911 37.2090656,11.2470007 39.8358188,8.3327274 C40.9696723,7.0688577 42.702518,5.91929034 45.4448815,5.3058969 C45.5709622,5.38486148 45.6987879,5.4607722 45.823996,5.54191813 L45.9622921,5.63440704 C46.1503225,5.75874355 46.3387891,5.88395259 46.5246381,6.01352432 M32.1614763,44.6084491 C32.0131461,47.1606195 30.3247995,50.2144987 28.3358661,50.3977314 C26.1501771,50.5984149 25.7182744,47.1566931 22.1321738,44.3685014 C16.3424973,39.8666473 10.2740473,43.2603796 7.94439072,39.6524395 C6.0335488,36.6945394 7.9094895,31.0278485 10.7103126,30.0283574 C14.3269517,28.7374391 20.2605958,34.9625536 21.0672503,35.8089144 C22.9257404,37.7594707 23.4885226,39.037301 25.4735296,39.718316 C27.955879,40.5729659 29.6878522,39.469643 31.1013517,40.7740857 C32.3228945,41.9040209 32.2094655,43.8231659 32.1614763,44.6084491 M59.3892286,23.9489566 C59.3451658,23.7234058 59.2963041,23.5022177 59.2470061,23.2775394 C57.5708749,15.9630626 53.2287266,9.57652876 47.0219805,5.29629899 C46.8326414,5.16498219 46.6385033,5.03541046 46.4443653,4.90714753 L46.3030153,4.81291355 C41.452618,1.66392787 35.8156343,0 30.0023995,0 C13.4592201,0 0,13.4588817 0,30.0021813 C0,46.5428634 13.4592201,60 30.0023995,60 C46.5429612,60 60,46.5428634 60,30.0021813 C60,27.9770232 59.7945191,25.9400858 59.3892286,23.9489566" id="Fill-1" fill="#FFFFFF" mask="url(#mask-2)"></path>
            </g>
        </g>
    </g>
</svg>
