<?xml version="1.0" encoding="UTF-8"?>
<svg width="59px" height="59px" viewBox="0 0 59 59" version="1.1" xmlns="http://www.w3.org/2000/svg" xmlns:xlink="http://www.w3.org/1999/xlink">
    <!-- Generator: Sketch 64 (93537) - https://sketch.com -->
    <title>advt_icon04</title>
    <desc>Created with Sketch.</desc>
    <g id="Page-1" stroke="none" stroke-width="1" fill="none" fill-rule="evenodd">
        <g id="index" transform="translate(-1173.000000, -3196.000000)" fill="#FFFFFF">
            <g id="advt_icon04" transform="translate(1173.000000, 3196.000000)">
                <path d="M39.3275084,26.6301253 L41.7866799,26.6301253 L41.7866799,24.1746248 L39.3275084,24.1746248 L39.3275084,26.6301253 Z M39.3275084,31.1359296 L41.7866799,31.1359296 L41.7866799,28.680888 L39.3275084,28.680888 L39.3275084,31.1359296 Z M39.3275084,35.6421927 L41.7866799,35.6421927 L41.7866799,33.1830212 L39.3275084,33.1830212 L39.3275084,35.6421927 Z M22.5368597,36.8720079 L36.4594692,36.8720079 L36.4594692,22.9448096 L22.5368597,22.9448096 L22.5368597,36.8720079 Z M32.7746124,42.1955476 L35.2342428,42.1955476 L35.2342428,39.7359172 L32.7746124,39.7359172 L32.7746124,42.1955476 Z M28.2678904,42.1955476 L30.7275208,42.1955476 L30.7275208,39.7359172 L28.2678904,39.7359172 L28.2678904,42.1955476 Z M23.766216,42.1955476 L26.2212576,42.1955476 L26.2212576,39.7359172 L23.766216,39.7359172 L23.766216,42.1955476 Z M17.2133201,26.6301253 L19.6683617,26.6301253 L19.6683617,24.1746248 L17.2133201,24.1746248 L17.2133201,26.6301253 Z M17.2133201,31.1359296 L19.6683617,31.1359296 L19.6683617,28.680888 L17.2133201,28.680888 L17.2133201,31.1359296 Z M17.2133201,35.6421927 L19.6683617,35.6421927 L19.6683617,33.1830212 L17.2133201,33.1830212 L17.2133201,35.6421927 Z M23.7666749,20.0772293 L26.2217165,20.0772293 L26.2217165,17.6221878 L23.7666749,17.6221878 L23.7666749,20.0772293 Z M28.2683492,20.0772293 L30.7279797,20.0772293 L30.7279797,17.6221878 L28.2683492,17.6221878 L28.2683492,20.0772293 Z M32.7741535,20.0772293 L35.233784,20.0772293 L35.233784,17.6221878 L32.7741535,17.6221878 L32.7741535,20.0772293 Z M11,48 L48,48 L48,11 L11,11 L11,48 Z" id="Fill-1"></path>
                <path d="M16,0 L16,9 L16,0 Z" id="Fill-2"></path>
                <polygon id="Fill-3" points="15 9 16 9 16 0 15 0"></polygon>
                <path d="M23,0 L23,9 L23,0 Z" id="Fill-4"></path>
                <polygon id="Fill-5" points="22 9 23 9 23 0 22 0"></polygon>
                <path d="M30,0 L30,9 L30,0 Z" id="Fill-6"></path>
                <polygon id="Fill-7" points="30 9 31 9 31 0 30 0"></polygon>
                <path d="M38,0 L38,9 L38,0 Z" id="Fill-8"></path>
                <polygon id="Fill-9" points="37 9 38 9 38 0 37 0"></polygon>
                <path d="M45,0 L45,9 L45,0 Z" id="Fill-10"></path>
                <polygon id="Fill-11" points="44 9 45 9 45 0 44 0"></polygon>
                <path d="M16,59 L16,50 L16,59 Z" id="Fill-12"></path>
                <polygon id="Fill-13" points="15 59 16 59 16 50 15 50"></polygon>
                <path d="M23,59 L23,50 L23,59 Z" id="Fill-14"></path>
                <polygon id="Fill-15" points="22 59 23 59 23 50 22 50"></polygon>
                <path d="M30,59 L30,50 L30,59 Z" id="Fill-16"></path>
                <polygon id="Fill-17" points="30 59 31 59 31 50 30 50"></polygon>
                <path d="M38,59 L38,50 L38,59 Z" id="Fill-18"></path>
                <polygon id="Fill-19" points="37 59 38 59 38 50 37 50"></polygon>
                <path d="M45,59 L45,50 L45,59 Z" id="Fill-20"></path>
                <polygon id="Fill-21" points="44 59 45 59 45 50 44 50"></polygon>
                <path d="M0,44 L9,44 L0,44 Z" id="Fill-22"></path>
                <polygon id="Fill-23" points="0 45 9 45 9 44 0 44"></polygon>
                <path d="M0,37 L9,37 L0,37 Z" id="Fill-24"></path>
                <polygon id="Fill-25" points="0 37 9 37 9 36 0 36"></polygon>
                <path d="M0,29 L9,29 L0,29 Z" id="Fill-26"></path>
                <polygon id="Fill-27" points="0 30 9 30 9 29 0 29"></polygon>
                <path d="M0,22 L9,22 L0,22 Z" id="Fill-28"></path>
                <polygon id="Fill-29" points="0 23 9 23 9 22 0 22"></polygon>
                <path d="M0,15 L9,15 L0,15 Z" id="Fill-30"></path>
                <polygon id="Fill-31" points="0 15 9 15 9 14 0 14"></polygon>
                <path d="M50,44 L59,44 L50,44 Z" id="Fill-32"></path>
                <polygon id="Fill-33" points="50 45 59 45 59 44 50 44"></polygon>
                <path d="M50,37 L59,37 L50,37 Z" id="Fill-34"></path>
                <polygon id="Fill-35" points="50 37 59 37 59 36 50 36"></polygon>
                <path d="M50,29 L59,29 L50,29 Z" id="Fill-36"></path>
                <polygon id="Fill-37" points="50 30 59 30 59 29 50 29"></polygon>
                <path d="M50,22 L59,22 L50,22 Z" id="Fill-38"></path>
                <polygon id="Fill-39" points="50 23 59 23 59 22 50 22"></polygon>
                <path d="M50,15 L59,15 L50,15 Z" id="Fill-40"></path>
                <polygon id="Fill-41" points="50 15 59 15 59 14 50 14"></polygon>
            </g>
        </g>
    </g>
</svg>
