<?xml version="1.0" encoding="UTF-8"?>
<svg width="60px" height="88px" viewBox="0 0 60 88" version="1.1" xmlns="http://www.w3.org/2000/svg" xmlns:xlink="http://www.w3.org/1999/xlink">
    <!-- Generator: Sketch 64 (93537) - https://sketch.com -->
    <title>advt_icon03</title>
    <desc>Created with Sketch.</desc>
    <defs>
        <polygon id="path-1" points="4.30107527e-05 0.0814748595 59.9767742 0.0814748595 59.9767742 34.9918748 4.30107527e-05 34.9918748"></polygon>
        <polygon id="path-3" points="0.120737758 0.154543341 36.8557751 0.154543341 36.8557751 88 0.120737758 88"></polygon>
    </defs>
    <g id="Page-1" stroke="none" stroke-width="1" fill="none" fill-rule="evenodd">
        <g id="index" transform="translate(-930.000000, -3224.000000)">
            <g id="advt_icon03" transform="translate(930.000000, 3224.000000)">
                <g id="Group-3" transform="translate(0.000000, 36.000000)">
                    <mask id="mask-2" fill="white">
                        <use xlink:href="#path-1"></use>
                    </mask>
                    <g id="Clip-2"></g>
                    <path d="M4.30107527e-05,28.3545244 C4.30107527e-05,25.1364451 1.55251613,20.421689 3.46563441,17.8263537 L15.3097204,1.75921951 C17.2236989,-0.836969512 18.7753118,-0.332030488 18.7753118,2.88412805 L18.7753118,27.1209878 C18.7753118,30.3386402 16.1647742,33.2688232 12.9632688,33.6636402 L2.33982796,34.9737927 C1.04756989,35.1332134 4.30107527e-05,34.2202256 4.30107527e-05,32.9267195 L4.30107527e-05,28.3545244 Z M59.9768172,28.3173902 C59.9768172,25.1197988 58.4323011,20.4325732 56.5221935,17.8412927 L44.655957,1.74428049 C42.7482151,-0.843585366 41.2013333,-0.360841463 41.2013333,2.84421951 L41.2013333,27.1608963 C41.2013333,30.3563537 43.812086,33.2688232 47.0135914,33.6636402 L57.6368172,34.9737927 C58.9290753,35.1332134 59.9768172,34.2202256 59.9768172,32.9561707 L59.9768172,28.3173902 Z" id="Fill-1" fill="#FFFFFF" mask="url(#mask-2)"></path>
                </g>
                <g id="Group-6" transform="translate(12.000000, 0.000000)">
                    <mask id="mask-4" fill="white">
                        <use xlink:href="#path-3"></use>
                    </mask>
                    <g id="Clip-5"></g>
                    <path d="M18.4883158,33.7424174 C13.4167193,33.7424174 9.30539181,29.6937782 9.30539181,24.6997249 C9.30539181,19.7052455 13.4167193,15.6566063 18.4883158,15.6566063 C23.5596959,15.6566063 27.6712398,19.7052455 27.6712398,24.6997249 C27.6712398,29.6937782 23.5596959,33.7424174 18.4883158,33.7424174 L18.4883158,33.7424174 Z M21.1120702,72.4967225 C21.1120702,73.9243254 19.9473275,75.0815361 18.4883158,75.0815361 C17.0392573,75.0815361 15.8645614,73.9166547 15.8645614,72.4967225 L15.8645614,47.9538847 C15.8645614,46.5262818 17.0290877,45.3690712 18.4883158,45.3690712 C19.9373743,45.3690712 21.1120702,46.5337395 21.1120702,47.9538847 L21.1120702,72.4967225 Z M36.1994152,21.8528291 C35.6273216,14.8222044 30.0450819,6.16688232 23.903731,2.52223341 C23.903731,2.52223341 20.8498246,0.154543341 18.4876667,0.154543341 C16.1252924,0.154543341 13.0716023,2.52223341 13.0716023,2.52223341 C6.89087135,6.08570073 1.4287193,14.8106983 0.783923977,21.8289646 C0.783923977,21.8289646 -0.11402924,25.7386789 0.179807018,42.1874344 C0.473643275,58.6361898 2.62959649,71.7999671 2.62959649,71.7999671 C2.89963158,73.7091196 4.60249708,74.6841511 6.41571345,73.9820688 C6.41571345,73.9820688 7.13277778,73.5883061 8.61840351,73.142553 C10.1269649,78.5668048 14.165807,88.0000639 18.4883158,88.0000639 C22.8108246,88.0000639 26.8494503,78.567231 28.3580117,73.1429792 C29.8427719,73.5885191 30.5596199,73.9820688 30.5596199,73.9820688 C32.3737018,74.6366354 34.0674795,73.7204126 34.3453041,71.8295845 C34.3453041,71.8295845 36.4982281,58.8145337 36.7953099,42.1874344 C37.0921754,25.5603351 36.1994152,21.8528291 36.1994152,21.8528291 L36.1994152,21.8528291 Z" id="Fill-4" fill="#FFFFFF" mask="url(#mask-4)"></path>
                </g>
            </g>
        </g>
    </g>
</svg>
