<?xml version="1.0" encoding="UTF-8"?>
<svg width="187px" height="72px" viewBox="0 0 187 72" version="1.1" xmlns="http://www.w3.org/2000/svg" xmlns:xlink="http://www.w3.org/1999/xlink">
    <!-- Generator: Sketch 64 (93537) - https://sketch.com -->
    <title>logo</title>
    <desc>Created with Sketch.</desc>
    <defs>
        <polygon id="path-1" points="0.63723408 0.5792 10.7321 0.5792 10.7321 37 0.63723408 37"></polygon>
        <polygon id="path-3" points="0 0.0690815429 36.4217 0.0690815429 36.4217 10.1633 0 10.1633"></polygon>
    </defs>
    <g id="Page-2" stroke="none" stroke-width="1" fill="none" fill-rule="evenodd">
        <g id="header-sign-in" transform="translate(-216.000000, -14.000000)">
            <g id="logo" transform="translate(216.000000, 14.000000)">
                <path d="M86.0856,25.6049 C88.9106,23.9259 91.9836,23.7479 95.3036,25.0709 C97.5366,26.3159 98.7126,28.1149 98.8306,30.4659 C98.8306,31.0589 98.5346,31.3549 97.9416,31.3549 L95.7486,31.3549 C95.1556,31.3549 94.8186,31.0589 94.7406,30.4659 C94.5826,29.4189 93.9596,28.6479 92.8736,28.1539 C92.0226,27.8569 91.0946,27.7979 90.0876,27.9759 C89.0796,28.1939 88.3086,28.6579 87.7746,29.3689 C86.9446,30.8719 87.5376,32.0569 89.5536,32.9259 C92.9916,34.2109 95.3626,35.1889 96.6676,35.8599 C98.6626,37.3229 99.5126,39.1799 99.2166,41.4329 C99.1566,43.2109 98.2686,44.7229 96.5486,45.9679 C93.7426,47.4499 90.6986,47.7559 87.4196,46.8869 C84.5146,45.6019 83.0036,43.4189 82.8846,40.3359 C82.8446,39.6839 83.1026,39.3579 83.6546,39.3579 L85.9676,39.3579 C86.5606,39.3579 86.8866,39.6549 86.9446,40.2469 C87.0236,41.6109 87.6166,42.6189 88.7236,43.2709 C90.7196,43.9819 92.5176,43.8339 94.1176,42.8259 C94.7706,42.3519 95.1066,41.5709 95.1256,40.4839 C94.9676,39.2589 94.2566,38.5189 92.9916,38.2619 L88.2496,36.6309 C84.8306,35.4059 83.1906,33.2719 83.3286,30.2289 C83.3686,28.5689 84.2876,27.0279 86.0856,25.6049" id="Fill-1" fill="#FEFEFE"></path>
                <path d="M100.8766,25.6049 C100.8766,24.9729 101.1526,24.6559 101.7056,24.6559 L117.8306,24.6559 C118.4426,24.6559 118.7496,24.9529 118.7496,25.5459 L118.7496,27.4129 C118.7496,28.0259 118.4526,28.3319 117.8596,28.3319 L112.5246,28.3319 C112.0306,28.3319 111.7836,28.5689 111.7836,29.0429 L111.7836,46.0269 C111.7836,46.6399 111.4866,46.9459 110.8946,46.9459 L108.7606,46.9459 C108.1476,46.9459 107.8416,46.6489 107.8416,46.0569 L107.8416,29.0729 C107.8416,28.5789 107.6046,28.3319 107.1306,28.3319 L101.7956,28.3319 C101.1826,28.3319 100.8766,28.0359 100.8766,27.4419 L100.8766,25.6049 Z" id="Fill-3" fill="#FEFEFE"></path>
                <path d="M131.5836,27.8872 C129.5876,27.9862 127.9476,29.0732 126.6636,31.1472 C125.8536,32.9662 125.5566,35.0202 125.7736,37.3132 C125.8926,38.1822 126.0896,38.9722 126.3666,39.6842 C127.2166,41.7202 128.5106,42.9742 130.2496,43.4482 C131.9686,43.9222 133.6186,43.7642 135.1996,42.9742 C135.8716,42.6982 136.5536,42.0752 137.2446,41.1072 C138.6476,38.8152 139.0626,36.2462 138.4896,33.4002 C138.3126,32.4912 138.0156,31.7012 137.6006,31.0292 C136.1386,28.6782 134.1326,27.6302 131.5836,27.8872 M126.4556,25.6342 C129.4796,24.0932 132.6206,23.7872 135.8816,24.7162 C138.7856,25.7432 140.7816,27.6012 141.8686,30.2882 C142.4216,31.6712 142.7476,33.1832 142.8466,34.8232 C143.0636,38.1822 142.3426,41.0382 140.6836,43.3892 C139.6156,44.8912 138.1636,45.9972 136.3256,46.7092 C134.6266,47.3022 132.7296,47.4992 130.6356,47.3022 C126.7416,46.9852 123.9556,44.7332 122.2766,40.5442 C121.2486,36.9282 121.3376,33.5192 122.5436,30.3182 C123.3726,28.3612 124.6776,26.8012 126.4556,25.6342" id="Fill-5" fill="#FEFEFE"></path>
                <path d="M156.2448,29.7251 C155.4928,28.8161 154.4268,28.3511 153.0438,28.3321 L149.3388,28.3321 C148.8448,28.3321 148.5978,28.5691 148.5978,29.0431 L148.5978,33.5481 C148.5978,34.0421 148.8348,34.2891 149.3078,34.2891 L152.8068,34.2891 C153.6368,34.2301 154.4268,34.0131 155.1778,33.6371 C156.7188,32.6891 157.0738,31.3851 156.2448,29.7251 L156.2448,29.7251 Z M144.7438,25.6051 C144.7438,24.9731 145.0198,24.6561 145.5738,24.6561 L153.9618,24.6561 C155.7608,24.7951 157.2918,25.3291 158.5568,26.2571 C159.4458,27.0481 160.0178,27.8771 160.2748,28.7471 C161.2038,31.2371 160.7498,33.4501 158.9118,35.3861 C158.3978,35.7821 158.4278,36.2561 159.0008,36.8091 C159.5738,37.6001 159.9098,38.3901 160.0088,39.1801 L160.6608,43.9221 C160.7598,44.5351 161.2138,45.3061 162.0238,46.2341 C162.4988,46.7091 162.4298,46.9461 161.8168,46.9461 L158.4368,46.9461 C157.8458,46.9461 157.3908,46.6491 157.0738,46.0571 C156.6598,44.6141 156.2838,42.3421 155.9478,39.2401 C155.8088,38.3501 155.2458,37.9061 154.2588,37.9061 L149.3388,37.9061 C148.8448,37.9061 148.5978,38.1421 148.5978,38.6171 L148.5978,46.0271 C148.5978,46.6401 148.3008,46.9461 147.7078,46.9461 L145.6628,46.9461 C145.0508,46.9461 144.7438,46.6491 144.7438,46.0571 L144.7438,25.6051 Z" id="Fill-7" fill="#FEFEFE"></path>
                <path d="M165.196,25.6049 C165.196,24.9729 165.472,24.6559 166.026,24.6559 L167.745,24.6559 C168.338,24.6559 168.762,24.9529 169.019,25.5459 C171.133,30.6839 173.238,35.8509 175.333,41.0479 C175.51,41.4819 175.737,41.3639 176.014,40.6919 C178.05,35.6529 180.114,30.6049 182.209,25.5459 C182.466,24.9529 182.891,24.6559 183.484,24.6559 L185.143,24.6559 C185.756,24.6559 186.062,24.9529 186.062,25.5459 L186.062,46.0269 C186.062,46.6399 185.766,46.9459 185.174,46.9459 L183.336,46.9459 C182.722,46.9459 182.417,46.6489 182.417,46.0569 L182.417,35.0609 C182.417,34.3889 182.278,34.3779 182.002,35.0299 L177.555,46.0569 C177.299,46.6489 176.874,46.9459 176.281,46.9459 L174.947,46.9459 C174.354,46.9459 173.929,46.6489 173.673,46.0569 C172.171,42.4209 170.699,38.7749 169.257,35.1199 C169.039,34.5269 168.911,34.2699 168.871,34.3489 L168.842,35.1789 L168.842,46.0269 C168.842,46.6399 168.545,46.9459 167.952,46.9459 L166.115,46.9459 C165.502,46.9459 165.196,46.6489 165.196,46.0569 L165.196,25.6049 Z" id="Fill-9" fill="#FEFEFE"></path>
                <path d="M13.2721,63.8784 C13.2081,60.5564 13.5911,57.2114 14.4741,53.9814 C15.3531,50.7534 16.7491,47.6464 18.6571,44.8564 C20.5621,42.0714 23.0091,39.6024 25.9471,37.8174 C27.4121,36.9244 28.9941,36.2044 30.6511,35.7044 C32.3081,35.2024 34.0421,34.9224 35.7841,34.8824 L35.7841,36.6834 C32.6211,36.6074 29.4391,37.4324 26.6261,38.9854 C25.2161,39.7584 23.8931,40.7044 22.6821,41.7844 C21.4721,42.8664 20.3721,44.0774 19.3871,45.3814 C17.4211,47.9944 15.9151,50.9694 14.9061,54.1104 C13.8911,57.2534 13.3581,60.5564 13.2721,63.8784" id="Fill-11" fill="#FEFEFE"></path>
                <path d="M21.3102,68.7475 C20.3882,65.5555 19.8922,62.2245 19.9102,58.8765 C19.9232,55.5315 20.4662,52.1685 21.5872,48.9795 C22.7072,45.7975 24.4322,42.7785 26.8082,40.2935 C27.9922,39.0525 29.3332,37.9475 30.8052,37.0355 C32.2762,36.1225 33.8772,35.4025 35.5502,34.9135 L36.0162,36.6525 C32.9412,37.3975 30.0812,39.0185 27.7652,41.2465 C26.6042,42.3585 25.5722,43.6145 24.6812,44.9705 C23.7922,46.3285 23.0422,47.7835 22.4302,49.2985 C21.2072,52.3305 20.5222,55.5945 20.3602,58.8895 C20.1942,62.1875 20.5332,65.5165 21.3102,68.7475" id="Fill-13" fill="#FEFEFE"></path>
                <path d="M30.3356,71.3701 C28.6186,68.5251 27.2776,65.4361 26.4286,62.1991 C25.5756,58.9631 25.2306,55.5751 25.4866,52.2041 C25.7456,48.8401 26.6306,45.4781 28.2816,42.4631 C29.1046,40.9581 30.1136,39.5431 31.2996,38.2811 C32.4836,37.0181 33.8446,35.9101 35.3336,35.0031 L36.2336,36.5631 C33.4556,38.0781 31.1136,40.3841 29.4526,43.1361 C28.6196,44.5101 27.9466,45.9911 27.4386,47.5311 C26.9316,49.0731 26.5826,50.6721 26.3836,52.2941 C25.9866,55.5391 26.1696,58.8691 26.8656,62.0951 C27.5596,65.3231 28.7486,68.4501 30.3356,71.3701" id="Fill-15" fill="#FEFEFE"></path>
                <g id="Group-19" transform="translate(29.000000, 34.567600)">
                    <mask id="mask-2" fill="white">
                        <use xlink:href="#path-1"></use>
                    </mask>
                    <g id="Clip-18"></g>
                    <path d="M10.7321,37.0002 C8.3371,34.6962 6.2431,32.0602 4.5841,29.1522 C2.9221,26.2482 1.7111,23.0642 1.0881,19.7422 C0.4671,16.4252 0.4521,12.9492 1.2661,9.6102 C1.6701,7.9422 2.2801,6.3152 3.0981,4.7892 C3.9161,3.2622 4.9431,1.8392 6.1471,0.5792 L7.4201,1.8522 C5.1291,4.0352 3.4631,6.8682 2.5721,9.9562 C2.1231,11.5002 1.8561,13.1042 1.7631,14.7232 C1.6721,16.3442 1.7511,17.9792 1.9771,19.5972 C2.4341,22.8342 3.4721,26.0032 4.9801,28.9382 C6.4851,31.8772 8.4431,34.5902 10.7321,37.0002" id="Fill-17" fill="#FEFEFE" mask="url(#mask-2)"></path>
                </g>
                <path d="M48.8591,69.3276 C45.9501,67.7226 43.2441,65.7186 40.8891,63.3386 C38.5331,60.9626 36.5401,58.2016 35.0781,55.1536 C33.6191,52.1116 32.7041,48.7576 32.6271,45.3206 C32.5861,43.6056 32.7541,41.8766 33.1491,40.1896 C33.5431,38.5036 34.1671,36.8636 35.0041,35.3336 L36.5631,36.2346 C34.9151,38.9366 34.0401,42.1036 33.9771,45.3176 C33.9431,46.9246 34.1001,48.5426 34.4301,50.1316 C34.7611,51.7206 35.2601,53.2796 35.8981,54.7836 C37.1771,57.7926 39.0011,60.5846 41.2161,63.0296 C43.4301,65.4786 46.0241,67.5926 48.8591,69.3276" id="Fill-20" fill="#FEFEFE"></path>
                <path d="M57.0944,64.7993 C53.8684,64.0023 50.7364,62.7663 47.8454,61.0773 C44.9554,59.3923 42.3154,57.2403 40.1144,54.6753 C37.9174,52.1133 36.1654,49.1113 35.2014,45.8113 C34.7184,44.1653 34.4324,42.4513 34.3774,40.7203 C34.3234,38.9893 34.5004,37.2433 34.9124,35.5493 L36.6534,36.0163 C35.7594,39.0523 35.7344,42.3383 36.5054,45.4583 C36.8874,47.0203 37.4584,48.5423 38.1884,49.9913 C38.9204,51.4403 39.8054,52.8173 40.8114,54.1053 C42.8244,56.6803 45.3094,58.9053 48.0814,60.6943 C50.8554,62.4863 53.9064,63.8573 57.0944,64.7993" id="Fill-22" fill="#FEFEFE"></path>
                <path d="M63.8786,58.2949 C60.5566,58.3589 57.2116,57.9759 53.9826,57.0929 C50.7536,56.2139 47.6466,54.8189 44.8576,52.9109 C42.0716,51.0049 39.6036,48.5579 37.8176,45.6209 C36.9256,44.1559 36.2046,42.5739 35.7046,40.9159 C35.2026,39.2589 34.9236,37.5259 34.8836,35.7829 L36.6846,35.7829 C36.6076,38.9469 37.4326,42.1279 38.9856,44.9419 C39.7596,46.3509 40.7046,47.6739 41.7846,48.8849 C42.8666,50.0949 44.0776,51.1959 45.3826,52.1799 C47.9946,54.1459 50.9696,55.6519 54.1106,56.6619 C57.2536,57.6759 60.5566,58.2099 63.8786,58.2949" id="Fill-24" fill="#FEFEFE"></path>
                <path d="M68.7477,50.2563 C65.5557,51.1783 62.2257,51.6733 58.8777,51.6563 C55.5317,51.6433 52.1687,51.1003 48.9807,49.9793 C45.7977,48.8583 42.7787,47.1343 40.2947,44.7583 C39.0537,43.5743 37.9477,42.2333 37.0357,40.7613 C36.1227,39.2903 35.4037,37.6893 34.9137,36.0163 L36.6527,35.5493 C37.3977,38.6263 39.0187,41.4853 41.2477,43.8013 C42.3587,44.9623 43.6147,45.9953 44.9717,46.8853 C46.3297,47.7743 47.7837,48.5243 49.2997,49.1363 C52.3317,50.3593 55.5947,51.0443 58.8907,51.2073 C62.1877,51.3733 65.5167,51.0333 68.7477,50.2563" id="Fill-26" fill="#FEFEFE"></path>
                <path d="M71.3708,41.2319 C68.5258,42.9489 65.4368,44.2899 62.1988,45.1389 C58.9638,45.9919 55.5748,46.3369 52.2048,46.0799 C48.8408,45.8209 45.4788,44.9369 42.4638,43.2859 C40.9588,42.4629 39.5438,41.4539 38.2818,40.2679 C37.0178,39.0839 35.9098,37.7229 35.0038,36.2339 L36.5628,35.3329 C38.0788,38.1119 40.3848,40.4539 43.1368,42.1139 C44.5108,42.9479 45.9908,43.6209 47.5318,44.1289 C49.0738,44.6359 50.6728,44.9839 52.2948,45.1839 C55.5398,45.5799 58.8698,45.3979 62.0958,44.7009 C65.3228,44.0079 68.4508,42.8189 71.3708,41.2319" id="Fill-28" fill="#FEFEFE"></path>
                <path d="M71.569,31.8364 C69.265,34.2314 66.629,36.3254 63.72,37.9844 C60.816,39.6454 57.632,40.8564 54.311,41.4794 C50.995,42.1004 47.518,42.1164 44.178,41.3014 C42.511,40.8974 40.884,40.2884 39.358,39.4694 C37.831,38.6524 36.408,37.6254 35.147,36.4204 L36.421,35.1474 C38.604,37.4394 41.436,39.1044 44.525,39.9964 C46.068,40.4454 47.673,40.7124 49.292,40.8054 C50.913,40.8954 52.548,40.8174 54.166,40.5904 C57.403,40.1334 60.572,39.0954 63.507,37.5884 C66.446,36.0834 69.159,34.1254 71.569,31.8364" id="Fill-30" fill="#FEFEFE"></path>
                <path d="M69.3278,22.708 C67.7228,25.617 65.7178,28.323 63.3388,30.678 C60.9628,33.034 58.2008,35.027 55.1538,36.489 C52.1108,37.948 48.7578,38.863 45.3208,38.94 C43.6048,38.981 41.8758,38.813 40.1898,38.418 C38.5038,38.023 36.8628,37.399 35.3338,36.563 L36.2338,35.003 C38.9358,36.652 42.1028,37.527 45.3168,37.589 C46.9248,37.624 48.5428,37.466 50.1318,37.137 C51.7198,36.805 53.2788,36.307 54.7828,35.668 C57.7918,34.389 60.5848,32.566 63.0288,30.351 C65.4778,28.136 67.5928,25.542 69.3278,22.708" id="Fill-32" fill="#FEFEFE"></path>
                <path d="M64.8005,14.4736 C64.0025,17.6996 62.7665,20.8316 61.0775,23.7226 C59.3935,26.6126 57.2405,29.2526 54.6765,31.4536 C52.1145,33.6496 49.1125,35.4016 45.8125,36.3666 C44.1665,36.8486 42.4515,37.1356 40.7215,37.1896 C38.9905,37.2446 37.2445,37.0666 35.5505,36.6546 L36.0165,34.9146 C39.0535,35.8076 42.3385,35.8336 45.4595,35.0616 C47.0205,34.6796 48.5435,34.1086 49.9915,33.3786 C51.4415,32.6476 52.8185,31.7626 54.1065,30.7566 C56.6815,28.7426 58.9055,26.2586 60.6945,23.4856 C62.4875,20.7126 63.8575,17.6606 64.8005,14.4736" id="Fill-34" fill="#FEFEFE"></path>
                <path d="M58.2956,7.6889 C58.3596,11.0109 57.9776,14.3559 57.0936,17.5849 C56.2146,20.8139 54.8186,23.9209 52.9106,26.7099 C51.0056,29.4949 48.5586,31.9639 45.6206,33.7499 C44.1556,34.6419 42.5746,35.3619 40.9166,35.8629 C39.2596,36.3639 37.5256,36.6439 35.7836,36.6839 L35.7836,34.8829 C38.9476,34.9599 42.1286,34.1349 44.9426,32.5819 C46.3526,31.8079 47.6746,30.8619 48.8856,29.7829 C50.0956,28.7009 51.1956,27.4899 52.1806,26.1849 C54.1466,23.5729 55.6526,20.5979 56.6626,17.4569 C57.6766,14.3139 58.2096,11.0109 58.2956,7.6889" id="Fill-36" fill="#FEFEFE"></path>
                <path d="M50.2575,2.8193 C51.1795,6.0113 51.6745,9.3423 51.6575,12.6903 C51.6445,16.0353 51.1005,19.3983 49.9795,22.5873 C48.8595,25.7693 47.1345,28.7883 44.7595,31.2733 C43.5755,32.5143 42.2345,33.6193 40.7625,34.5313 C39.2905,35.4443 37.6905,36.1633 36.0175,36.6533 L35.5505,34.9143 C38.6265,34.1693 41.4865,32.5483 43.8015,30.3203 C44.9625,29.2083 45.9955,27.9523 46.8865,26.5963 C47.7755,25.2373 48.5255,23.7833 49.1375,22.2683 C50.3605,19.2363 51.0455,15.9723 51.2075,12.6773 C51.3735,9.3793 51.0335,6.0503 50.2575,2.8193" id="Fill-38" fill="#FEFEFE"></path>
                <path d="M41.2321,0.1967 C42.9491,3.0417 44.2901,6.1307 45.1391,9.3687 C45.9921,12.6037 46.3371,15.9917 46.0801,19.3627 C45.8221,22.7267 44.9371,26.0887 43.2861,29.1037 C42.4631,30.6087 41.4541,32.0237 40.2681,33.2857 C39.0841,34.5487 37.7231,35.6577 36.2341,36.5637 L35.3341,35.0037 C38.1121,33.4887 40.4541,31.1827 42.1151,28.4307 C42.9481,27.0567 43.6211,25.5757 44.1291,24.0357 C44.6361,22.4937 44.9841,20.8947 45.1841,19.2727 C45.5811,16.0277 45.3981,12.6977 44.7021,9.4717 C44.0081,6.2437 42.8191,3.1167 41.2321,0.1967" id="Fill-40" fill="#FEFEFE"></path>
                <path d="M31.8366,0 C34.2316,2.304 36.3256,4.94 37.9836,7.848 C39.6456,10.752 40.8566,13.936 41.4796,17.258 C42.1016,20.574 42.1166,24.051 41.3016,27.39 C40.8976,29.057 40.2876,30.685 39.4696,32.211 C38.6516,33.737 37.6246,35.161 36.4206,36.421 L35.1476,35.148 C37.4396,32.965 39.1046,30.132 39.9956,27.044 C40.4456,25.5 40.7126,23.896 40.8056,22.276 C40.8966,20.656 40.8176,19.021 40.5906,17.403 C40.1336,14.166 39.0956,10.997 37.5886,8.062 C36.0836,5.123 34.1246,2.41 31.8366,0" id="Fill-42" fill="#FEFEFE"></path>
                <path d="M22.7087,2.2397 C25.6177,3.8447 28.3227,5.8497 30.6787,8.2287 C33.0347,10.6047 35.0277,13.3657 36.4897,16.4137 C37.9487,19.4557 38.8637,22.8097 38.9407,26.2467 C38.9807,27.9617 38.8137,29.6917 38.4187,31.3777 C38.0237,33.0637 37.3997,34.7037 36.5637,36.2337 L35.0037,35.3327 C36.6517,32.6317 37.5277,29.4637 37.5907,26.2497 C37.6247,24.6427 37.4677,23.0247 37.1377,21.4357 C36.8057,19.8467 36.3077,18.2877 35.6697,16.7837 C34.3907,13.7747 32.5667,10.9827 30.3517,8.5377 C28.1367,6.0887 25.5427,3.9747 22.7087,2.2397" id="Fill-44" fill="#FEFEFE"></path>
                <path d="M14.4743,6.767 C17.7003,7.565 20.8313,8.801 23.7223,10.49 C26.6133,12.175 29.2533,14.326 31.4533,16.892 C33.6503,19.453 35.4023,22.455 36.3663,25.755 C36.8493,27.401 37.1353,29.115 37.1903,30.846 C37.2453,32.577 37.0673,34.323 36.6553,36.017 L34.9153,35.551 C35.8083,32.515 35.8343,29.228 35.0623,26.108 C34.6803,24.547 34.1093,23.024 33.3793,21.575 C32.6473,20.126 31.7623,18.749 30.7563,17.461 C28.7433,14.886 26.2583,12.661 23.4863,10.873 C20.7133,9.08 17.6613,7.71 14.4743,6.767" id="Fill-46" fill="#FEFEFE"></path>
                <path d="M7.6891,13.2714 C11.0111,13.2074 14.3571,13.5904 17.5851,14.4734 C20.8141,15.3524 23.9211,16.7474 26.7111,18.6554 C29.4961,20.5614 31.9641,23.0084 33.7511,25.9464 C34.6431,27.4104 35.3631,28.9924 35.8641,30.6504 C36.3651,32.3074 36.6451,34.0404 36.6851,35.7834 L34.8841,35.7834 C34.9601,32.6194 34.1351,29.4384 32.5821,26.6244 C31.8081,25.2154 30.8631,23.8924 29.7831,22.6814 C28.7021,21.4714 27.4901,20.3704 26.1851,19.3864 C23.5731,17.4204 20.5981,15.9144 17.4571,14.9044 C14.3151,13.8914 11.0111,13.3564 7.6891,13.2714" id="Fill-48" fill="#FEFEFE"></path>
                <path d="M2.8219,21.311 C6.0139,20.389 9.3449,19.894 12.6929,19.911 C16.0389,19.924 19.4009,20.468 22.5899,21.589 C25.7719,22.709 28.7909,24.434 31.2749,26.809 C32.5169,27.993 33.6219,29.334 34.5349,30.806 C35.4479,32.277 36.1669,33.878 36.6559,35.551 L34.9169,36.018 C34.1729,32.941 32.5519,30.082 30.3229,27.767 C29.2109,26.605 27.9559,25.572 26.5979,24.682 C25.2409,23.793 23.7859,23.043 22.2709,22.431 C19.2389,21.208 15.9749,20.523 12.6799,20.361 C9.3829,20.195 6.0529,20.534 2.8219,21.311" id="Fill-50" fill="#FEFEFE"></path>
                <path d="M0.1969,30.3359 C3.0419,28.6199 6.1309,27.2789 9.3679,26.4289 C12.6029,25.5759 15.9919,25.2309 19.3619,25.4879 C22.7259,25.7469 26.0889,26.6309 29.1029,28.2819 C30.6089,29.1049 32.0229,30.1139 33.2859,31.2999 C34.5489,32.4839 35.6569,33.8449 36.5629,35.3349 L35.0039,36.2349 C33.4879,33.4569 31.1829,31.1139 28.4309,29.4539 C27.0559,28.6199 25.5759,27.9469 24.0359,27.4389 C22.4939,26.9319 20.8939,26.5839 19.2719,26.3839 C16.0269,25.9879 12.6979,26.1699 9.4719,26.8669 C6.2439,27.5599 3.1169,28.7499 0.1969,30.3359" id="Fill-52" fill="#FEFEFE"></path>
                <g id="Group-56" transform="translate(0.000000, 29.567600)">
                    <mask id="mask-4" fill="white">
                        <use xlink:href="#path-3"></use>
                    </mask>
                    <g id="Clip-55"></g>
                    <path d="M-0.0003,10.1633 C2.3037,7.7683 4.9397,5.6743 7.8487,4.0153 C10.7527,2.3543 13.9367,1.1433 17.2577,0.5203 C20.5737,-0.1007 24.0507,-0.1167 27.3907,0.6983 C29.0577,1.1023 30.6847,1.7113 32.2107,2.5303 C33.7377,3.3473 35.1607,4.3743 36.4217,5.5793 L35.1477,6.8523 C32.9647,4.5603 30.1327,2.8953 27.0437,2.0033 C25.5007,1.5543 23.8957,1.2873 22.2767,1.1943 C20.6557,1.1043 19.0207,1.1823 17.4027,1.4093 C14.1657,1.8663 10.9967,2.9043 8.0617,4.4123 C5.1227,5.9163 2.4097,7.8743 -0.0003,10.1633" id="Fill-54" fill="#FEFEFE" mask="url(#mask-4)"></path>
                </g>
                <path d="M2.2409,48.8588 C3.8459,45.9498 5.8509,43.2448 8.2299,40.8888 C10.6059,38.5328 13.3679,36.5398 16.4149,35.0778 C19.4579,33.6188 22.8109,32.7038 26.2479,32.6268 C27.9629,32.5868 29.6929,32.7538 31.3789,33.1498 C33.0649,33.5438 34.7059,34.1678 36.2349,35.0048 L35.3349,36.5638 C32.6329,34.9158 29.4659,34.0398 26.2519,33.9778 C24.6439,33.9428 23.0259,34.1008 21.4369,34.4298 C19.8479,34.7618 18.2899,35.2608 16.7859,35.8988 C13.7769,37.1778 10.9839,39.0008 8.5399,41.2168 C6.0909,43.4308 3.9759,46.0248 2.2409,48.8588" id="Fill-57" fill="#FEFEFE"></path>
                <path d="M6.7682,57.0937 C7.5662,53.8677 8.8022,50.7357 10.4912,47.8447 C12.1752,44.9547 14.3282,42.3147 16.8922,40.1137 C19.4542,37.9177 22.4562,36.1657 25.7562,35.2007 C27.4022,34.7187 29.1162,34.4317 30.8472,34.3777 C32.5782,34.3227 34.3242,34.4997 36.0182,34.9127 L35.5512,36.6527 C32.5152,35.7597 29.2292,35.7337 26.1092,36.5047 C24.5472,36.8877 23.0252,37.4587 21.5762,38.1877 C20.1272,38.9197 18.7502,39.8047 17.4622,40.8107 C14.8872,42.8247 12.6632,45.3087 10.8732,48.0817 C9.0812,50.8547 7.7112,53.9067 6.7682,57.0937" id="Fill-59" fill="#FEFEFE"></path>
            </g>
        </g>
    </g>
</svg>
