<?xml version="1.0" encoding="utf-8"?>
<!-- Generator: Adobe Illustrator 24.0.0, SVG Export Plug-In . SVG Version: 6.00 Build 0)  -->
<svg version="1.1" id="Layer_1" xmlns="http://www.w3.org/2000/svg" xmlns:xlink="http://www.w3.org/1999/xlink" x="0px" y="0px"
	 viewBox="0 0 541 104.6" style="enable-background:new 0 0 541 104.6;" xml:space="preserve">
<style type="text/css">
	.st0{fill:#FFFFFF;}
	.st1{enable-background:new    ;}
</style>
<title>logo-black</title>
<g>
	<path class="st0" d="M19.7,93.3c-0.3-4.8,0-9.8,1-14.6c1.1-4.8,2.9-9.6,5.6-13.9s6.2-8.3,10.7-11.3c4.4-3,9.8-5,15.5-5.4v8.8
		c-4-0.4-8.2,0.4-12.1,2.3c-3.9,1.8-7.5,4.7-10.4,8.2c-3,3.5-5.3,7.6-7,12C21.1,83.7,20.1,88.4,19.7,93.3z"/>
	<path class="st0" d="M31.4,100.3c-1.6-4.6-2.5-9.4-2.8-14.4c-0.2-4.9,0.3-10,1.8-14.9s3.9-9.6,7.4-13.7s8.2-7.4,13.5-9.2l2.3,8.5
		c-4,0.7-7.8,2.5-11.1,5.3s-6,6.5-7.9,10.6c-2,4.1-3.2,8.7-3.7,13.4C30.3,90.7,30.5,95.6,31.4,100.3z"/>
	<path class="st0" d="M44.5,104.1c-2.7-4-4.9-8.4-6.4-13.2s-2.3-9.7-2.2-14.8c0.1-5.1,1.2-10.3,3.6-15.2c2.3-4.8,6-9.3,10.7-12.4
		l4.4,7.6c-3.7,1.7-6.9,4.5-9.4,8.1c-2.5,3.5-4.1,7.8-4.9,12.3s-0.8,9.2-0.1,13.9C41,95.1,42.4,99.8,44.5,104.1z"/>
	<path class="st0" d="M58.1,104.4c-3.7-3.2-6.9-6.9-9.6-11.1c-2.7-4.2-4.7-8.8-5.9-13.8s-1.5-10.3-0.5-15.6s3.4-10.5,7.1-14.7
		l6.2,6.2c-3.1,2.6-5.5,6.1-7,10.2s-2,8.6-1.6,13.2s1.6,9.1,3.5,13.4C52.4,96.7,55,100.7,58.1,104.4z"/>
	<path class="st0" d="M71.4,101.2c-4.3-2.1-8.5-4.9-12.1-8.2c-3.7-3.3-6.9-7.3-9.3-11.8s-4.1-9.6-4.5-14.9s0.6-11,3.1-16.1l7.6,4.4
		c-2.3,3.3-3.7,7.3-4.1,11.6c-0.4,4.3,0.3,8.8,1.9,13.1c1.5,4.3,3.9,8.4,6.9,12.1C63.8,95.1,67.4,98.4,71.4,101.2z"/>
	<path class="st0" d="M83.4,94.6c-4.8-0.9-9.4-2.5-13.8-4.8s-8.5-5.3-12-9s-6.4-8.2-8.2-13.3c-1.8-5.1-2.3-10.8-1.2-16.3l8.5,2.3
		c-1.4,3.8-1.7,8.1-0.9,12.3C56.6,70,58.4,74.2,61,78s6,7.1,9.8,9.9C74.5,90.7,78.8,93,83.4,94.6z"/>
	<path class="st0" d="M93.2,85.1c-4.8,0.3-9.8,0-14.6-1c-4.8-1.1-9.6-2.9-13.9-5.6s-8.3-6.2-11.3-10.7c-3-4.4-5-9.8-5.4-15.5h8.8
		c-0.4,4,0.4,8.2,2.3,12.1c1.8,3.9,4.7,7.5,8.2,10.4c3.5,3,7.6,5.3,12,7C83.7,83.7,88.4,84.7,93.2,85.1z"/>
	<path class="st0" d="M100.3,73.5c-4.6,1.6-9.4,2.6-14.4,2.8C81,76.5,75.9,76,71,74.5s-9.6-3.9-13.7-7.4s-7.4-8.2-9.2-13.5l8.5-2.3
		c0.7,4,2.5,7.8,5.3,11.1s6.5,6,10.6,7.9c4.1,2,8.7,3.2,13.4,3.7C90.7,74.5,95.5,74.3,100.3,73.5z"/>
	<path class="st0" d="M104.1,60.3c-4,2.7-8.4,4.9-13.2,6.4c-4.7,1.5-9.7,2.3-14.8,2.2C71,68.7,65.8,67.6,61,65.3
		c-4.8-2.3-9.3-6-12.4-10.7l7.6-4.4c1.7,3.7,4.5,6.9,8.1,9.4c3.5,2.5,7.8,4.1,12.3,4.9s9.2,0.8,13.9,0.1
		C95.1,63.9,99.7,62.4,104.1,60.3z"/>
	<path class="st0" d="M104.4,46.7c-3.2,3.7-6.9,6.9-11.1,9.6s-8.8,4.7-13.8,5.9s-10.3,1.5-15.6,0.5s-10.5-3.4-14.7-7.1l6.2-6.2
		c2.6,3.1,6.1,5.5,10.2,7s8.6,2,13.2,1.6s9.1-1.6,13.4-3.5C96.6,52.4,100.7,49.8,104.4,46.7z"/>
	<path class="st0" d="M101.2,33.4c-2.1,4.3-4.9,8.5-8.2,12.1c-3.3,3.7-7.3,6.9-11.8,9.3s-9.6,4.1-14.9,4.5s-11-0.6-16.1-3.1l4.4-7.6
		c3.3,2.3,7.3,3.7,11.6,4.1c4.3,0.4,8.8-0.3,13.1-1.9c4.3-1.5,8.4-3.9,12.1-6.9C95.1,41,98.4,37.4,101.2,33.4z"/>
	<path class="st0" d="M94.6,21.4c-0.9,4.8-2.5,9.4-4.8,13.8s-5.3,8.5-9,12s-8.2,6.4-13.3,8.2c-5.1,1.8-10.8,2.3-16.3,1.2l2.3-8.5
		c3.8,1.4,8.1,1.7,12.3,0.9c4.2-0.8,8.4-2.6,12.2-5.2c3.8-2.6,7.1-6,9.9-9.8C90.7,30.3,92.9,26,94.6,21.4z"/>
	<path class="st0" d="M85.1,11.6c0.3,4.8,0,9.8-1,14.6c-1.1,4.8-2.9,9.6-5.6,13.9s-6.2,8.3-10.7,11.3c-4.4,3-9.8,5-15.5,5.4V48
		c4,0.4,8.2-0.4,12.1-2.3c3.9-1.8,7.5-4.7,10.4-8.2c3-3.5,5.3-7.6,7-12C83.7,21.1,84.7,16.4,85.1,11.6z"/>
	<path class="st0" d="M73.4,4.5c1.6,4.6,2.6,9.4,2.8,14.4c0.2,4.9-0.3,10-1.8,14.9s-3.9,9.6-7.4,13.7s-8.2,7.4-13.5,9.2l-2.3-8.5
		c4-0.7,7.8-2.5,11.1-5.3s6-6.5,7.9-10.6c2-4.1,3.2-8.7,3.7-13.4C74.5,14.1,74.3,9.3,73.4,4.5z"/>
	<path class="st0" d="M60.3,0.7c2.7,4,4.9,8.4,6.4,13.2s2.3,9.7,2.2,14.9c-0.1,5.1-1.2,10.3-3.6,15.1c-2.3,4.8-6,9.3-10.7,12.4
		l-4.4-7.6c3.7-1.7,6.9-4.5,9.4-8c2.5-3.5,4.1-7.8,4.9-12.3s0.8-9.2,0.1-13.9C63.8,9.7,62.4,5.1,60.3,0.7z"/>
	<path class="st0" d="M46.7,0.4c3.7,3.2,6.9,6.9,9.6,11.1s4.7,8.8,5.9,13.8s1.5,10.3,0.5,15.6s-3.4,10.5-7.1,14.7l-6.2-6.2
		c3.1-2.6,5.5-6.1,7-10.2s2-8.6,1.6-13.1c-0.4-4.6-1.6-9.1-3.5-13.4S49.8,4.1,46.7,0.4z"/>
	<path class="st0" d="M33.4,3.7c4.3,2.1,8.5,4.9,12.1,8.2c3.7,3.3,6.9,7.3,9.3,11.8s4.1,9.5,4.5,14.9c0.4,5.3-0.6,11-3.1,16.1
		l-7.6-4.4c2.3-3.3,3.7-7.3,4.1-11.6c0.4-4.3-0.3-8.8-1.9-13.1c-1.5-4.3-3.9-8.4-6.9-12.1C40.9,9.7,37.4,6.4,33.4,3.7z"/>
	<path class="st0" d="M21.4,10.2c4.8,0.9,9.4,2.5,13.8,4.8s8.5,5.3,12,9s6.4,8.2,8.2,13.2c1.8,5.1,2.3,10.8,1.2,16.3l-8.5-2.3
		c1.4-3.8,1.7-8.1,0.9-12.3s-2.6-8.4-5.2-12.2c-2.6-3.8-6-7.1-9.8-9.9C30.3,14.1,26,11.9,21.4,10.2z"/>
	<path class="st0" d="M11.6,19.7c4.8-0.3,9.8,0,14.6,1c4.8,1.1,9.6,2.9,13.9,5.6s8.3,6.2,11.3,10.7c3,4.4,5,9.8,5.4,15.5H48
		c0.4-4-0.4-8.2-2.3-12.1c-1.8-3.9-4.7-7.5-8.2-10.4c-3.5-3-7.6-5.3-12-7C21.1,21.1,16.4,20.1,11.6,19.7z"/>
	<path class="st0" d="M4.5,31.4c4.6-1.6,9.4-2.5,14.4-2.8c4.9-0.2,10,0.3,14.9,1.8s9.6,3.9,13.7,7.4s7.4,8.2,9.2,13.5l-8.5,2.3
		c-0.7-4-2.5-7.8-5.3-11.1s-6.5-6-10.6-7.9c-4.1-2-8.7-3.2-13.4-3.7C14.1,30.3,9.3,30.5,4.5,31.4z"/>
	<path class="st0" d="M0.7,44.5c4-2.7,8.4-4.9,13.2-6.4s9.7-2.3,14.9-2.2c5.1,0.1,10.3,1.2,15.2,3.6c4.8,2.3,9.3,6,12.4,10.7
		l-7.6,4.4c-1.7-3.7-4.5-6.9-8-9.4s-7.8-4.1-12.3-4.9s-9.2-0.8-13.9-0.1C9.7,41,5.1,42.4,0.7,44.5z"/>
	<path class="st0" d="M0.4,58.2c3.2-3.7,6.9-6.9,11.1-9.6s8.8-4.7,13.8-5.9s10.3-1.5,15.6-0.5s10.5,3.4,14.7,7.1l-6.2,6.2
		c-2.6-3.1-6.1-5.5-10.2-7s-8.6-2-13.1-1.6c-4.6,0.4-9.1,1.6-13.4,3.5C8.2,52.4,4.1,55,0.4,58.2z"/>
	<path class="st0" d="M3.6,71.4c2.1-4.3,4.9-8.5,8.2-12.1c3.3-3.7,7.3-6.9,11.8-9.3s9.5-4.1,14.9-4.5c5.3-0.4,11,0.6,16.1,3.1
		l-4.4,7.6c-3.3-2.3-7.3-3.7-11.6-4.1c-4.3-0.4-8.8,0.3-13.1,1.9c-4.3,1.5-8.4,3.9-12.1,6.9C9.7,63.9,6.4,67.4,3.6,71.4z"/>
	<path class="st0" d="M10.2,83.4c0.9-4.8,2.5-9.4,4.8-13.8s5.3-8.5,9-12s8.2-6.4,13.3-8.2s10.8-2.3,16.3-1.2l-2.3,8.5
		c-3.8-1.4-8.1-1.7-12.3-0.9s-8.4,2.6-12.2,5.2c-3.8,2.6-7.1,6-9.9,9.8C14.1,74.5,11.9,78.8,10.2,83.4z"/>
</g>
<g class="st1">
	<path class="st0" d="M126.7,30.7c5.7-3.4,11.9-3.7,18.6-1.1c4.5,2.5,6.9,6.1,7.1,10.9c0,1.2-0.6,1.8-1.8,1.8h-4.4
		c-1.2,0-1.9-0.6-2-1.8c-0.3-2.1-1.6-3.7-3.8-4.7c-1.7-0.6-3.6-0.7-5.6-0.4c-2,0.4-3.6,1.4-4.7,2.8c-1.7,3-0.5,5.4,3.6,7.2
		c6.9,2.6,11.7,4.6,14.3,5.9c4,2.9,5.7,6.7,5.1,11.2c-0.1,3.6-1.9,6.6-5.4,9.1c-5.7,3-11.8,3.6-18.4,1.9c-5.9-2.6-8.9-7-9.1-13.2
		c-0.1-1.3,0.4-2,1.6-2h4.7c1.2,0,1.9,0.6,2,1.8c0.2,2.7,1.4,4.8,3.6,6.1c4,1.4,7.6,1.1,10.9-0.9c1.3-1,2-2.5,2-4.7
		c-0.3-2.5-1.8-4-4.3-4.5l-9.6-3.3c-6.9-2.5-10.2-6.8-9.9-12.9C121.2,36.7,123,33.6,126.7,30.7z"/>
	<path class="st0" d="M156.5,30.7c0-1.3,0.6-1.9,1.7-1.9h32.5c1.2,0,1.9,0.6,1.9,1.8v3.8c0,1.2-0.6,1.9-1.8,1.9H180
		c-1,0-1.5,0.5-1.5,1.4v34.2c0,1.2-0.6,1.9-1.8,1.9h-4.3c-1.2,0-1.9-0.6-1.9-1.8V37.7c0-1-0.5-1.5-1.4-1.5h-10.8
		c-1.2,0-1.9-0.6-1.9-1.8V30.7z"/>
	<path class="st0" d="M208,30.8c6.1-3.1,12.4-3.7,19-1.9c5.9,2.1,9.9,5.8,12.1,11.2c1.1,2.8,1.8,5.8,2,9.1c0.4,6.8-1,12.5-4.4,17.3
		c-2.2,3-5.1,5.3-8.8,6.7c-3.4,1.2-7.2,1.6-11.5,1.2c-7.8-0.6-13.5-5.2-16.8-13.6c-2.1-7.3-1.9-14.2,0.5-20.6
		C201.8,36.3,204.4,33.1,208,30.8z M218.4,35.3c-4,0.2-7.3,2.4-9.9,6.6c-1.6,3.7-2.2,7.8-1.8,12.4c0.2,1.8,0.6,3.3,1.2,4.8
		c1.7,4.1,4.3,6.6,7.8,7.6c3.5,1,6.8,0.6,10-1c1.4-0.6,2.7-1.8,4.1-3.8c2.8-4.6,3.7-9.8,2.5-15.5c-0.4-1.8-1-3.4-1.8-4.8
		C227.5,36.9,223.5,34.8,218.4,35.3z"/>
	<path class="st0" d="M244.9,30.7c0-1.3,0.6-1.9,1.7-1.9h16.9c3.6,0.3,6.7,1.4,9.3,3.2c1.8,1.6,2.9,3.3,3.5,5c1.9,5,1,9.5-2.7,13.4
		c-1,0.8-1,1.8,0.2,2.9c1.2,1.6,1.8,3.2,2,4.8l1.3,9.6c0.2,1.2,1.1,2.8,2.7,4.7c1,1,0.8,1.4-0.4,1.4h-6.8c-1.2,0-2.1-0.6-2.7-1.8
		c-0.8-2.9-1.6-7.5-2.3-13.7c-0.3-1.8-1.4-2.7-3.4-2.7h-9.9c-1,0-1.5,0.5-1.5,1.4v14.9c0,1.2-0.6,1.9-1.8,1.9h-4.1
		c-1.2,0-1.9-0.6-1.9-1.8V30.7z M268.1,39c-1.5-1.8-3.7-2.8-6.5-2.8h-7.5c-1,0-1.5,0.5-1.5,1.4v9.1c0,1,0.5,1.5,1.4,1.5h7
		c1.7-0.1,3.3-0.6,4.8-1.3C269,45,269.7,42.4,268.1,39z"/>
	<path class="st0" d="M286.1,30.7c0-1.3,0.6-1.9,1.7-1.9h3.5c1.2,0,2.1,0.6,2.6,1.8c4.3,10.4,8.5,20.8,12.7,31.2
		c0.4,0.9,0.8,0.6,1.4-0.7c4.1-10.2,8.3-20.3,12.5-30.5c0.5-1.2,1.4-1.8,2.6-1.8h3.3c1.2,0,1.9,0.6,1.9,1.8v41.3
		c0,1.2-0.6,1.9-1.8,1.9h-3.7c-1.2,0-1.9-0.6-1.9-1.8V49.8c0-1.4-0.3-1.4-0.8-0.1l-9,22.2c-0.5,1.2-1.4,1.8-2.6,1.8h-2.7
		c-1.2,0-2.1-0.6-2.6-1.8c-3-7.3-6-14.7-8.9-22c-0.4-1.2-0.7-1.7-0.8-1.6l-0.1,1.7v21.9c0,1.2-0.6,1.9-1.8,1.9H288
		c-1.2,0-1.9-0.6-1.9-1.8V30.7z"/>
	<path class="st0" d="M377.9,28.9c2.9-1,6.1-1.3,9.6-0.9c3.4,0.4,6.4,1.5,9,3.5c2.8,2.6,4.4,5.9,4.8,9.9c0,1.4-0.5,2-1.7,2h-4.4
		c-1.2,0-1.9-0.6-2.1-1.8c-1-4.2-3.4-6.3-7.3-6.3c-2-0.2-3.8,0.2-5.6,1c-2,1.1-3.4,2.4-4.4,3.9c-2.8,4.9-3.6,10.4-2.3,16.7
		c0.7,4.1,2.9,7.1,6.6,9c3.5,1.5,7.6,1.7,12.1,0.5c1-0.4,1.4-1,1.4-2V58c0-1-0.5-1.5-1.4-1.5h-7.4c-1.2,0-1.9-0.6-1.9-1.8V51
		c0-1.2,0.6-1.9,1.8-1.9h14.9c1.2,0,1.9,0.6,1.9,1.8v18.2c0,1.2-0.6,2.1-1.8,2.7c-2.6,1.2-5.6,2-9,2.4c-5,0.6-9.1,0.4-12.3-0.6
		c-5.2-1.6-9.1-5.2-11.8-11.1c-1.1-2.8-1.8-6-2.1-9.4c-0.3-4.1,0.2-8.2,1.7-12.4C368,35.4,371.9,31.4,377.9,28.9z"/>
	<path class="st0" d="M424.3,30.7c0.6-1.3,1.4-1.9,2.5-1.9h2.9c1.2,0,2.1,0.6,2.6,1.8l18.1,41.2c0.5,1.3,0.2,1.9-1,1.9h-4.8
		c-1.2,0-2.1-0.6-2.6-1.8c-1.2-2.6-2.4-5.3-3.5-7.9c-0.5-1-1.2-1.4-2.2-1.4h-15.8c-1,0-1.7,0.6-2.3,1.8l-3.3,7.6
		c-0.6,1.2-1.4,1.8-2.6,1.8h-4.8c-1.2,0-1.6-0.6-1.1-1.8L424.3,30.7z M429.1,42c-0.4-1.1-0.9-1-1.4,0.1c-1.7,3.7-3.3,7.5-4.8,11.2
		c-0.5,1.3-0.2,1.9,0.7,1.9h9.6c1,0,1.2-0.6,0.7-1.9L429.1,42z"/>
	<path class="st0" d="M455.4,30.7c0-1.3,0.6-1.9,1.7-1.9h3.5c1.2,0,2.1,0.6,2.6,1.8c4.3,10.4,8.5,20.8,12.7,31.2
		c0.4,0.9,0.8,0.6,1.4-0.7c4.1-10.2,8.3-20.3,12.5-30.5c0.5-1.2,1.4-1.8,2.6-1.8h3.3c1.2,0,1.9,0.6,1.9,1.8v41.3
		c0,1.2-0.6,1.9-1.8,1.9h-3.7c-1.2,0-1.9-0.6-1.9-1.8V49.8c0-1.4-0.3-1.4-0.8-0.1l-9,22.2c-0.5,1.2-1.4,1.8-2.6,1.8H475
		c-1.2,0-2.1-0.6-2.6-1.8c-3-7.3-6-14.7-8.9-22c-0.4-1.2-0.7-1.7-0.8-1.6l-0.1,1.7v21.9c0,1.2-0.6,1.9-1.8,1.9h-3.7
		c-1.2,0-1.9-0.6-1.9-1.8V30.7z"/>
	<path class="st0" d="M503.5,30.7c0-1.3,0.6-1.9,1.7-1.9h30.2c1.2,0,1.9,0.6,1.9,1.8v3.8c0,1.2-0.6,1.9-1.8,1.9h-22.7
		c-1,0-1.5,0.5-1.5,1.4v7.8c0,1,0.5,1.5,1.4,1.5h22c1.2,0,1.9,0.6,1.9,1.8v3.8c0,1.2-0.6,1.9-1.8,1.9h-22c-1,0-1.5,0.5-1.5,1.4v9.1
		c0,1,0.5,1.5,1.4,1.5h23.6c1.2,0,1.9,0.6,1.9,1.8v3.8c0,1.2-0.6,1.9-1.8,1.9h-31c-1.2,0-1.9-0.6-1.9-1.8V30.7z"/>
</g>
</svg>
