<?xml version="1.0" encoding="utf-8"?>
<!-- Generator: Adobe Illustrator 24.0.0, SVG Export Plug-In . SVG Version: 6.00 Build 0)  -->
<svg version="1.2" baseProfile="tiny" id="Layer_1" xmlns="http://www.w3.org/2000/svg" xmlns:xlink="http://www.w3.org/1999/xlink"
	 x="0px" y="0px" viewBox="0 0 327.9 104.6" xml:space="preserve">
<title>logo-black</title>
<g>
	<path d="M125.81,30.94c5.71-3.39,11.91-3.75,18.62-1.08c4.51,2.51,6.88,6.15,7.12,10.9c0,1.2-0.6,1.8-1.8,1.8h-4.43
		c-1.2,0-1.88-0.6-2.04-1.8c-0.32-2.12-1.58-3.67-3.77-4.67c-1.72-0.6-3.59-0.72-5.63-0.36c-2.04,0.44-3.59,1.38-4.67,2.81
		c-1.68,3.03-0.48,5.43,3.59,7.18c6.94,2.59,11.73,4.57,14.37,5.93c4.03,2.95,5.75,6.7,5.15,11.25c-0.12,3.59-1.92,6.65-5.39,9.16
		c-5.67,2.99-11.81,3.61-18.44,1.86c-5.87-2.59-8.92-7-9.16-13.23c-0.08-1.32,0.44-1.98,1.56-1.98h4.67c1.2,0,1.86,0.6,1.98,1.8
		c0.16,2.75,1.36,4.79,3.59,6.11c4.03,1.44,7.66,1.14,10.9-0.9c1.32-0.96,2-2.53,2.04-4.73c-0.32-2.47-1.76-3.97-4.31-4.49
		l-9.58-3.29c-6.9-2.47-10.22-6.78-9.94-12.93C120.32,36.93,122.18,33.81,125.81,30.94z"/>
	<path d="M155.68,30.94c0-1.28,0.56-1.92,1.68-1.92h32.57c1.24,0,1.86,0.6,1.86,1.8v3.77c0,1.24-0.6,1.86-1.8,1.86h-10.78
		c-1,0-1.5,0.48-1.5,1.44v34.3c0,1.24-0.6,1.86-1.8,1.86h-4.31c-1.24,0-1.86-0.6-1.86-1.8v-34.3c0-1-0.48-1.5-1.44-1.5h-10.78
		c-1.24,0-1.86-0.6-1.86-1.8V30.94z"/>
	<path d="M207.35,31c6.11-3.11,12.45-3.73,19.04-1.86c5.87,2.08,9.9,5.83,12.09,11.25c1.12,2.79,1.78,5.85,1.98,9.16
		c0.44,6.79-1.02,12.55-4.37,17.3c-2.16,3.03-5.09,5.27-8.8,6.71c-3.43,1.2-7.26,1.6-11.49,1.2c-7.86-0.64-13.49-5.19-16.88-13.65
		c-2.08-7.3-1.9-14.19,0.54-20.65C201.12,36.51,203.76,33.35,207.35,31z M217.71,35.55c-4.03,0.2-7.34,2.39-9.94,6.58
		c-1.64,3.67-2.24,7.82-1.8,12.45c0.24,1.76,0.64,3.35,1.2,4.79c1.72,4.11,4.33,6.65,7.84,7.6c3.47,0.96,6.8,0.64,10-0.96
		c1.36-0.56,2.73-1.82,4.13-3.77c2.83-4.63,3.67-9.82,2.51-15.57c-0.36-1.84-0.96-3.43-1.8-4.79
		C226.9,37.15,222.85,35.03,217.71,35.55z"/>
	<path d="M244.29,30.94c0-1.28,0.56-1.92,1.68-1.92h16.94c3.63,0.28,6.72,1.36,9.28,3.23c1.8,1.6,2.95,3.27,3.47,5.03
		c1.88,5.03,0.96,9.5-2.75,13.41c-1.04,0.8-0.98,1.76,0.18,2.87c1.16,1.6,1.84,3.19,2.04,4.79l1.32,9.58
		c0.2,1.24,1.12,2.79,2.75,4.67c0.96,0.96,0.82,1.44-0.42,1.44h-6.82c-1.2,0-2.12-0.6-2.75-1.8c-0.84-2.91-1.6-7.5-2.27-13.77
		c-0.28-1.8-1.42-2.69-3.41-2.69h-9.94c-1,0-1.5,0.48-1.5,1.44v14.97c0,1.24-0.6,1.86-1.8,1.86h-4.13c-1.24,0-1.86-0.6-1.86-1.8
		V30.94z M267.51,39.26c-1.52-1.84-3.67-2.77-6.47-2.81h-7.48c-1,0-1.5,0.48-1.5,1.44v9.1c0,1,0.48,1.5,1.44,1.5h7.06
		c1.68-0.12,3.27-0.56,4.79-1.32C268.47,45.25,269.19,42.61,267.51,39.26z"/>
	<path d="M285.59,30.94c0-1.28,0.56-1.92,1.68-1.92h3.47c1.2,0,2.05,0.6,2.57,1.8c4.27,10.38,8.52,20.81,12.75,31.31
		c0.36,0.88,0.82,0.64,1.38-0.72c4.11-10.18,8.28-20.37,12.51-30.59c0.52-1.2,1.38-1.8,2.57-1.8h3.35c1.24,0,1.86,0.6,1.86,1.8
		v41.37c0,1.24-0.6,1.86-1.8,1.86h-3.71c-1.24,0-1.86-0.6-1.86-1.8V50.04c0-1.36-0.28-1.38-0.84-0.06l-8.98,22.27
		c-0.52,1.2-1.38,1.8-2.57,1.8h-2.69c-1.2,0-2.06-0.6-2.57-1.8c-3.03-7.34-6.01-14.71-8.92-22.09c-0.44-1.2-0.7-1.72-0.78-1.56
		l-0.06,1.68v21.91c0,1.24-0.6,1.86-1.8,1.86h-3.71c-1.24,0-1.86-0.6-1.86-1.8V30.94z"/>
</g>
<g>
	<path d="M19.67,93.25c-0.34-4.83-0.03-9.76,1.04-14.6c1.06-4.83,2.88-9.58,5.56-13.94c2.67-4.35,6.23-8.31,10.68-11.33
		c4.43-3.02,9.81-5.01,15.45-5.39v8.82c-4.04-0.36-8.24,0.43-12.13,2.29c-3.9,1.84-7.46,4.7-10.42,8.18
		c-2.96,3.49-5.32,7.58-7.02,11.99C21.12,83.69,20.07,88.42,19.67,93.25z"/>
	<path d="M31.36,100.32c-1.57-4.58-2.55-9.42-2.78-14.37c-0.22-4.94,0.3-10,1.76-14.9c1.46-4.89,3.86-9.64,7.38-13.71
		c3.49-4.06,8.18-7.38,13.53-9.2l2.28,8.52c-3.99,0.7-7.84,2.55-11.13,5.35c-3.29,2.79-5.99,6.47-7.94,10.6
		c-1.96,4.13-3.18,8.7-3.68,13.4C30.28,90.72,30.49,95.56,31.36,100.32z"/>
	<path d="M44.48,104.14c-2.7-4.01-4.9-8.44-6.4-13.16c-1.5-4.72-2.3-9.74-2.15-14.85c0.14-5.1,1.24-10.31,3.58-15.15
		c2.32-4.83,5.99-9.25,10.69-12.39l4.41,7.64c-3.67,1.71-6.92,4.49-9.36,8.05c-2.46,3.54-4.11,7.8-4.93,12.3
		c-0.82,4.5-0.82,9.23-0.09,13.9C40.95,95.14,42.41,99.75,44.48,104.14z"/>
	<path d="M58.13,104.42c-3.65-3.18-6.92-6.88-9.59-11.06c-2.67-4.17-4.74-8.81-5.92-13.78c-1.18-4.96-1.48-10.28-0.46-15.56
		c0.99-5.27,3.39-10.48,7.12-14.73l6.24,6.24c-3.11,2.6-5.52,6.13-6.96,10.19c-1.46,4.06-1.95,8.6-1.58,13.15
		c0.37,4.56,1.6,9.13,3.51,13.45C52.4,96.65,55,100.73,58.13,104.42z"/>
	<path d="M71.4,101.17c-4.35-2.12-8.46-4.86-12.12-8.2c-3.65-3.34-6.86-7.29-9.29-11.78c-2.43-4.49-4.09-9.55-4.47-14.91
		c-0.4-5.34,0.56-11,3.06-16.07l7.64,4.41c-2.33,3.32-3.74,7.35-4.09,11.65c-0.36,4.3,0.34,8.82,1.88,13.11
		c1.54,4.31,3.91,8.4,6.87,12.08C63.85,95.14,67.42,98.41,71.4,101.17z"/>
	<path d="M83.37,94.59c-4.75-0.93-9.43-2.5-13.83-4.78c-4.39-2.28-8.51-5.26-12.02-8.98c-3.51-3.71-6.42-8.17-8.18-13.25
		c-1.77-5.06-2.3-10.77-1.2-16.32l8.52,2.28c-1.39,3.81-1.71,8.07-0.93,12.31c0.77,4.24,2.61,8.43,5.21,12.18
		c2.6,3.76,5.95,7.11,9.77,9.89C74.52,90.72,78.81,92.95,83.37,94.59z"/>
	<path d="M93.23,85.13c-4.83,0.33-9.76,0.03-14.6-1.04c-4.83-1.06-9.58-2.88-13.94-5.56c-4.35-2.67-8.31-6.23-11.33-10.68
		c-3.02-4.43-5.01-9.81-5.39-15.45l8.82,0c-0.36,4.04,0.43,8.24,2.29,12.13c1.84,3.9,4.7,7.46,8.18,10.42
		c3.49,2.96,7.58,5.32,11.99,7.02C83.68,83.69,88.4,84.73,93.23,85.13z"/>
	<path d="M100.31,73.45c-4.58,1.57-9.42,2.55-14.37,2.78c-4.94,0.22-10-0.3-14.9-1.76C66.15,73,61.4,70.6,57.34,67.08
		c-4.06-3.49-7.38-8.18-9.2-13.53l8.52-2.28c0.7,3.99,2.55,7.84,5.35,11.13c2.79,3.29,6.47,5.99,10.6,7.94
		c4.13,1.96,8.7,3.18,13.4,3.68C90.71,74.52,95.54,74.31,100.31,73.45z"/>
	<path d="M104.12,60.33c-4.01,2.7-8.44,4.9-13.16,6.4c-4.72,1.5-9.74,2.3-14.85,2.15c-5.1-0.14-10.31-1.24-15.15-3.58
		c-4.83-2.32-9.25-5.99-12.39-10.69l7.64-4.41c1.71,3.67,4.49,6.92,8.05,9.36c3.54,2.46,7.8,4.11,12.3,4.93
		c4.5,0.82,9.23,0.82,13.9,0.09C95.13,63.85,99.74,62.4,104.12,60.33z"/>
	<path d="M104.41,46.67c-3.18,3.65-6.88,6.92-11.06,9.59c-4.17,2.67-8.81,4.74-13.78,5.92c-4.96,1.18-10.28,1.48-15.56,0.46
		c-5.27-0.99-10.48-3.39-14.73-7.12l6.24-6.24c2.6,3.11,6.13,5.52,10.19,6.96c4.06,1.46,8.6,1.95,13.15,1.58
		c4.56-0.37,9.13-1.6,13.45-3.51C96.63,52.4,100.71,49.8,104.41,46.67z"/>
	<path d="M101.15,33.4c-2.12,4.35-4.86,8.46-8.2,12.12c-3.34,3.65-7.29,6.86-11.78,9.29c-4.49,2.43-9.55,4.09-14.91,4.47
		c-5.34,0.4-11-0.56-16.07-3.06l4.41-7.64c3.32,2.33,7.35,3.74,11.65,4.09c4.3,0.36,8.82-0.34,13.11-1.88
		c4.31-1.54,8.4-3.91,12.08-6.87C95.13,40.95,98.39,37.39,101.15,33.4z"/>
	<path d="M94.57,21.43c-0.93,4.75-2.5,9.43-4.78,13.83c-2.28,4.39-5.26,8.51-8.98,12.02c-3.71,3.51-8.17,6.42-13.25,8.18
		c-5.06,1.77-10.77,2.3-16.32,1.2l2.28-8.52c3.81,1.39,8.07,1.71,12.31,0.93c4.24-0.77,8.43-2.61,12.18-5.21
		c3.76-2.6,7.11-5.95,9.89-9.77C90.7,30.29,92.94,25.99,94.57,21.43z"/>
	<path d="M85.12,11.57c0.33,4.83,0.03,9.76-1.04,14.6C83.02,31,81.2,35.75,78.52,40.1c-2.67,4.35-6.23,8.31-10.68,11.33
		c-4.43,3.02-9.81,5.01-15.45,5.39l0-8.82c4.04,0.36,8.24-0.43,12.13-2.29c3.9-1.84,7.46-4.7,10.42-8.18
		c2.96-3.49,5.32-7.58,7.02-11.99C83.67,21.12,84.72,16.4,85.12,11.57z"/>
	<path d="M73.43,4.49c1.57,4.58,2.55,9.42,2.78,14.37c0.22,4.94-0.3,10-1.76,14.9c-1.46,4.89-3.86,9.64-7.38,13.71
		c-3.49,4.06-8.18,7.38-13.53,9.2l-2.28-8.52c3.99-0.7,7.84-2.55,11.13-5.35c3.29-2.79,5.99-6.47,7.94-10.6
		c1.96-4.13,3.18-8.7,3.68-13.4C74.51,14.1,74.3,9.26,73.43,4.49z"/>
	<path d="M60.32,0.68c2.7,4.01,4.9,8.44,6.4,13.16c1.5,4.72,2.3,9.74,2.15,14.85c-0.14,5.1-1.24,10.31-3.58,15.15
		c-2.32,4.83-5.99,9.25-10.69,12.39l-4.41-7.64c3.67-1.71,6.92-4.49,9.36-8.05c2.46-3.54,4.11-7.8,4.93-12.3
		c0.82-4.5,0.82-9.23,0.09-13.9C63.84,9.68,62.38,5.06,60.32,0.68z"/>
	<path d="M46.66,0.39c3.65,3.18,6.92,6.88,9.59,11.06c2.67,4.17,4.74,8.81,5.92,13.78c1.18,4.96,1.48,10.28,0.46,15.56
		c-0.99,5.27-3.39,10.48-7.12,14.73l-6.24-6.24c3.11-2.6,5.52-6.13,6.96-10.19c1.46-4.06,1.95-8.6,1.58-13.15
		c-0.37-4.56-1.6-9.13-3.51-13.45C52.39,8.17,49.79,4.09,46.66,0.39z"/>
	<path d="M33.39,3.65c4.35,2.12,8.46,4.86,12.12,8.2c3.65,3.34,6.86,7.29,9.29,11.78c2.43,4.49,4.09,9.55,4.47,14.91
		c0.4,5.34-0.56,11-3.06,16.07l-7.64-4.41c2.33-3.32,3.74-7.35,4.09-11.65c0.36-4.3-0.34-8.82-1.88-13.11
		c-1.54-4.31-3.91-8.4-6.87-12.08C40.94,9.68,37.37,6.41,33.39,3.65z"/>
	<path d="M21.42,10.23c4.75,0.93,9.43,2.5,13.83,4.78c4.39,2.28,8.51,5.26,12.02,8.98c3.51,3.71,6.42,8.17,8.18,13.25
		c1.77,5.06,2.3,10.77,1.2,16.32l-8.52-2.28c1.39-3.81,1.71-8.07,0.93-12.31c-0.77-4.24-2.61-8.43-5.21-12.18
		c-2.6-3.76-5.95-7.11-9.77-9.89C30.27,14.1,25.98,11.87,21.42,10.23z"/>
	<path d="M11.56,19.69c4.83-0.33,9.76-0.03,14.6,1.04c4.83,1.06,9.58,2.88,13.94,5.56c4.35,2.67,8.31,6.23,11.33,10.68
		c3.02,4.43,5.01,9.81,5.39,15.45l-8.82,0c0.36-4.04-0.43-8.24-2.29-12.13c-1.84-3.9-4.7-7.46-8.18-10.42
		c-3.49-2.96-7.58-5.32-11.99-7.02C21.11,21.13,16.39,20.09,11.56,19.69z"/>
	<path d="M4.48,31.37c4.58-1.57,9.42-2.55,14.37-2.78c4.94-0.22,10,0.3,14.9,1.76c4.89,1.46,9.64,3.86,13.71,7.38
		c4.06,3.49,7.38,8.18,9.2,13.53l-8.52,2.28c-0.7-3.99-2.55-7.84-5.35-11.13c-2.79-3.29-6.47-5.99-10.6-7.94
		c-4.13-1.96-8.7-3.18-13.4-3.68C14.09,30.3,9.25,30.51,4.48,31.37z"/>
	<path d="M0.67,44.49c4.01-2.7,8.44-4.9,13.16-6.4c4.72-1.5,9.74-2.3,14.85-2.15c5.1,0.14,10.31,1.24,15.15,3.58
		c4.83,2.32,9.25,5.99,12.39,10.69l-7.64,4.41c-1.71-3.67-4.49-6.92-8.05-9.36c-3.54-2.46-7.8-4.11-12.3-4.93
		c-4.5-0.82-9.23-0.82-13.9-0.09C9.66,40.97,5.05,42.42,0.67,44.49z"/>
	<path d="M0.38,58.15c3.18-3.65,6.88-6.92,11.06-9.59c4.17-2.67,8.81-4.74,13.78-5.92c4.96-1.18,10.28-1.48,15.56-0.46
		c5.27,0.99,10.48,3.39,14.73,7.12l-6.24,6.24c-2.6-3.11-6.13-5.52-10.19-6.96c-4.06-1.46-8.6-1.95-13.15-1.58
		c-4.56,0.37-9.13,1.6-13.45,3.51C8.16,52.41,4.08,55.01,0.38,58.15z"/>
	<path d="M3.64,71.42c2.12-4.35,4.86-8.46,8.2-12.12c3.34-3.65,7.29-6.86,11.78-9.29c4.49-2.43,9.55-4.09,14.91-4.47
		c5.34-0.4,11,0.56,16.07,3.06l-4.41,7.64c-3.32-2.33-7.35-3.74-11.65-4.09c-4.3-0.36-8.82,0.34-13.11,1.88
		c-4.31,1.54-8.4,3.91-12.08,6.87C9.67,63.86,6.4,67.43,3.64,71.42z"/>
	<path d="M10.22,83.38c0.93-4.75,2.5-9.43,4.78-13.83c2.28-4.39,5.26-8.51,8.98-12.02c3.71-3.51,8.17-6.42,13.25-8.18
		c5.06-1.77,10.77-2.3,16.32-1.2l-2.28,8.52c-3.81-1.39-8.07-1.71-12.31-0.93c-4.24,0.77-8.43,2.61-12.18,5.21
		c-3.76,2.6-7.11,5.95-9.89,9.77C14.09,74.53,11.86,78.82,10.22,83.38z"/>
</g>
</svg>
